<?xml version="1.0" encoding="UTF-8"?>
<svg id="Livello_2" data-name="Livello 2" xmlns="http://www.w3.org/2000/svg" viewBox="0 0 1190.55 841.89">
  <defs>
    <style>
      .cls-1 {
        fill: #1d1d1b;
      }

      .cls-2 {
        fill: #fff;
        stroke: #fff;
        stroke-miterlimit: 10;
      }
    </style>
  </defs>
  <rect class="cls-1" width="1190.55" height="841.89"/>
  <g>
    <polygon class="cls-2" points="163.76 109.67 184.16 109.67 234.63 180.54 212.66 180.54 163.76 109.67"/>
    <polygon class="cls-2" points="184.59 109.67 164.19 109.67 113.72 180.54 135.69 180.54 184.59 109.67"/>
    <rect class="cls-2" x="140.39" y="147.84" width="69.24" height="17.01"/>
  </g>
  <rect class="cls-2" x="543.42" y="251.87" width="18.99" height="70.87"/>
  <rect class="cls-2" x="629.81" y="251.87" width="18.99" height="70.87"/>
  <rect class="cls-2" x="543.42" y="278.8" width="104.88" height="17.01"/>
  <g>
    <rect class="cls-2" x="964.02" y="111.34" width="18.99" height="70.87"/>
    <g>
      <rect class="cls-2" x="964.53" y="111.34" width="104.88" height="17.01"/>
      <rect class="cls-2" x="964.53" y="165.2" width="104.88" height="17.01"/>
      <rect class="cls-2" x="964.53" y="138.27" width="104.88" height="17.01"/>
    </g>
  </g>
  <g>
    <rect class="cls-2" x="122.31" y="252.25" width="18.99" height="70.87"/>
    <rect class="cls-2" x="122.82" y="252.25" width="104.88" height="17.01"/>
    <rect class="cls-2" x="122.82" y="279.18" width="104.88" height="17.01"/>
  </g>
  <rect class="cls-2" x="968.16" y="252.87" width="18.99" height="70.87"/>
  <rect class="cls-2" x="795.78" y="252.25" width="18.99" height="70.87"/>
  <rect class="cls-2" x="968.16" y="306.82" width="101.25" height="16.91"/>
  <g>
    <rect class="cls-2" x="418.58" y="393.32" width="18.99" height="70.87"/>
    <rect class="cls-2" x="335.43" y="393.32" width="18.99" height="70.87"/>
    <polyline class="cls-2" points="354.42 393.32 354.42 414.1 418.58 464.18"/>
    <polyline class="cls-2" points="418.58 464.18 418.58 443.4 354.42 393.32"/>
  </g>
  <g>
    <rect class="cls-2" x="208.09" y="393.91" width="18.99" height="70.87"/>
    <rect class="cls-2" x="122.94" y="393.91" width="18.99" height="70.87"/>
    <polygon class="cls-2" points="208.09 393.91 208.09 414.7 188.74 429.35 175.01 439.74 161.28 429.35 141.93 414.7 141.93 393.91 175.01 418.95 208.09 393.91"/>
  </g>
  <g>
    <rect class="cls-2" x="124.79" y="536.76" width="18.99" height="70.87"/>
    <rect class="cls-2" x="124.79" y="566.05" width="59.13" height="16.91"/>
    <rect class="cls-2" x="124.79" y="536.42" width="75.75" height="16.91"/>
    <path class="cls-2" d="M200.54,553.33s6.43-.82,6.75,5.59c.32,6.41-6.75,7.13-6.75,7.13h-16.61v16.91l18.56,25.04h22.75l-19.38-26.5s19.38-5.29,19.38-21.62-12.86-23.46-24.69-23.46"/>
  </g>
  <g>
    <rect class="cls-2" x="586.18" y="536.49" width="18.99" height="70.87"/>
    <rect class="cls-2" x="543.74" y="536.11" width="103.61" height="16.57"/>
  </g>
  <polygon class="cls-2" points="1027.78 606.65 1007.38 606.65 956.91 535.78 978.88 535.78 1027.78 606.65"/>
  <polygon class="cls-2" points="1006.95 606.65 1027.35 606.65 1077.82 535.78 1055.85 535.78 1006.95 606.65"/>
  <g>
    <path class="cls-2" d="M333.32,556.45c0,22.34,24.73,21.63,24.73,21.63v-15.7s-6.98.35-6.98-5.9c0-6.26,6.98-5.9,6.98-5.9v-15.7s-24.73-.75-24.73,21.58Z"/>
    <rect class="cls-2" x="356.24" y="562.38" width="55.65" height="15.7" transform="translate(768.13 1140.46) rotate(-180)"/>
    <rect class="cls-2" x="356.24" y="534.87" width="81.34" height="15.7" transform="translate(793.81 1085.44) rotate(-180)"/>
    <path class="cls-2" d="M436.62,584.16c0-22.34-24.73-21.63-24.73-21.63v15.7s6.98-.35,6.98,5.9-6.98,5.9-6.98,5.9v15.7s24.73.75,24.73-21.58Z"/>
    <rect class="cls-2" x="334.37" y="590.03" width="77.52" height="15.7"/>
  </g>
  <g>
    <path class="cls-2" d="M333.32,556.45c0,22.34,24.73,21.63,24.73,21.63v-15.7s-6.98.35-6.98-5.9c0-6.26,6.98-5.9,6.98-5.9v-15.7s-24.73-.75-24.73,21.58Z"/>
    <rect class="cls-2" x="356.24" y="562.38" width="55.65" height="15.7" transform="translate(768.13 1140.46) rotate(-180)"/>
    <rect class="cls-2" x="356.24" y="534.87" width="81.34" height="15.7" transform="translate(793.81 1085.44) rotate(-180)"/>
    <path class="cls-2" d="M436.62,584.16c0-22.34-24.73-21.63-24.73-21.63v15.7s6.98-.35,6.98,5.9-6.98,5.9-6.98,5.9v15.7s24.73.75,24.73-21.58Z"/>
    <rect class="cls-2" x="334.37" y="590.03" width="77.52" height="15.7"/>
  </g>
  <path class="cls-2" d="M649.76,153.02c-4.82,17.38-26.77,30.15-53.9,30.15-30.77,0-54.88-16.43-54.88-37.39s24.11-37.39,54.88-37.39c25.8,0,46.91,11.54,53.07,27.62h-18c-6.14-6.89-19.13-10.62-35.07-10.62-22.32,0-38.88,7.33-38.88,20.39s16.56,20.39,38.88,20.39c17.79,0,31.91-4.66,36.92-13.15h16.98Z"/>
  <g>
    <rect class="cls-2" x="783.07" y="118.76" width="18.99" height="50.38"/>
    <path class="cls-2" d="M752.5,152.34c4.82,17.38,26.77,30.15,53.9,30.15,30.77,0,54.88-16.43,54.88-37.39,0-20.97-24.11-37.39-54.88-37.39-25.8,0-46.91,11.54-53.07,27.62h18c6.14-6.89,19.13-10.62,35.07-10.62,22.32,0,38.88,7.33,38.88,20.39,0,13.05-16.56,20.39-38.88,20.39-17.79,0-31.91-4.66-36.92-13.15h-16.98Z"/>
  </g>
  <g>
    <path class="cls-2" d="M540.99,429.35c0-20.97,24.11-37.39,54.88-37.39v17c-22.33,0-38.88,7.33-38.88,20.39h-16Z"/>
    <path class="cls-2" d="M650.76,429.35c0-20.97-24.11-37.39-54.88-37.39v17c22.33,0,38.88,7.33,38.88,20.39h16Z"/>
    <path class="cls-2" d="M540.99,429.35c0,20.97,24.11,37.39,54.88,37.39v-17c-22.33,0-38.88-7.33-38.88-20.39h-16Z"/>
    <path class="cls-2" d="M650.76,429.35c0,20.97-24.11,37.39-54.88,37.39v-17c22.33,0,38.88-7.33,38.88-20.39h16Z"/>
  </g>
  <path class="cls-2" d="M1073.67,428.34c0-20.97-24.11-37.39-54.89-37.39s-54.88,16.42-54.88,37.39,24.11,37.39,54.88,37.39c10.12,0,19.51-1.78,27.57-4.91l2.07,2.91h21l-8-11.59c7.69-6.42,12.25-14.68,12.25-23.8ZM1039.1,419.8h-21.97l19.32,27.13c-5.23,1.2-11.21,1.81-17.67,1.81-22.32,0-38.88-7.34-38.88-20.39s16.56-20.39,38.88-20.39,38.89,7.33,38.89,20.39c0,4.32-1.82,8.01-5.06,11.03l-13.51-19.58Z"/>
  <path class="cls-2" d="M751.01,570.23c0,20.97,24.11,37.39,54.88,37.39v-17c-22.33,0-38.88-7.33-38.88-20.39h-16Z"/>
  <rect class="cls-2" x="751.05" y="535.1" width="19.27" height="42.95"/>
  <path class="cls-2" d="M844.73,570.23c0,13.06-16.56,20.39-38.88,20.39v17c30.78,0,54.88-16.42,54.88-37.39h-16Z"/>
  <rect class="cls-2" x="844.73" y="535.1" width="15.96" height="35.13" transform="translate(1705.43 1105.33) rotate(-180)"/>
  <rect class="cls-2" x="312.12" y="139.99" width="55.65" height="15.7" transform="translate(192.11 487.79) rotate(-90)"/>
  <path class="cls-2" d="M437.23,159.63c0-22.34-24.73-21.63-24.73-21.63v15.7s6.98-.35,6.98,5.9-6.98,5.9-6.98,5.9v15.7s24.73.75,24.73-21.58Z"/>
  <rect class="cls-2" x="332.1" y="165.51" width="80.4" height="15.7"/>
  <rect class="cls-2" x="332.1" y="109.96" width="81.09" height="15.7" transform="translate(745.29 235.62) rotate(-180)"/>
  <path class="cls-2" d="M436.91,131.74c0-22.34-24.73-21.63-24.73-21.63v15.7s6.98-.35,6.98,5.9-6.98,5.9-6.98,5.9v15.7s24.73.75,24.73-21.58Z"/>
  <rect class="cls-2" x="344.62" y="137.62" width="67.88" height="16.08"/>
  <path class="cls-2" d="M441.7,279.46v8.22c0,3.11-.53,6.12-1.54,8.99-5.76,16.49-27.13,28.4-53.34,28.4-30.78,0-54.88-16.42-54.88-37.39s24.1-37.38,54.88-37.38v17c-22.33,0-38.88,7.33-38.88,20.38s16.55,20.39,38.88,20.39c16.52,0,29.88-4.02,35.71-11.4h-35.71v-17.21h54.88Z"/>
  <g>
    <path class="cls-2" d="M858.99,415.98c0,24.06-25.07,23.3-25.07,23.3v-16.91s7.08.38,7.08-6.36-7.08-6.36-7.08-6.36v-16.91s25.07-.81,25.07,23.24Z"/>
    <rect class="cls-2" x="755.33" y="393.08" width="19.71" height="70.87"/>
    <rect class="cls-2" x="755.33" y="422.37" width="78.6" height="16.91"/>
    <rect class="cls-2" x="755.33" y="392.74" width="78.6" height="16.91"/>
  </g>
  <rect class="cls-2" x="165.24" y="687.76" width="18.99" height="103.29" transform="translate(914.14 564.67) rotate(90)"/>
  <rect class="cls-2" x="166.14" y="635.32" width="18.99" height="103.29" transform="translate(862.6 511.32) rotate(90)"/>
  <polyline class="cls-2" points="227.28 677.47 196.62 677.47 122.73 746.13"/>
  <polyline class="cls-2" points="122.73 746.13 153.4 746.13 227.28 677.47"/>
</svg>