<?xml version="1.0" encoding="UTF-8"?>
<svg xmlns="http://www.w3.org/2000/svg" viewBox="0 0 1440 757">
  <defs>
    <style>
      .cls-1 {
        fill: #99a85f;
      }

      .cls-2 {
        fill: #c7cca5;
      }

      .cls-3, .cls-4, .cls-5 {
        fill: #1d1d1b;
      }

      .cls-6 {
        letter-spacing: 0em;
      }

      .cls-7 {
        letter-spacing: 0em;
      }

      .cls-8 {
        stroke: #1d1d1b;
        stroke-miterlimit: 10;
        stroke-width: 2px;
      }

      .cls-4 {
        font-size: 40px;
      }

      .cls-4, .cls-5 {
        font-family: BebasNeue-Regular, 'Bebas Neue';
      }

      .cls-5 {
        font-size: 225px;
      }

      .cls-9 {
        letter-spacing: 0em;
      }

      .cls-10 {
        letter-spacing: 0em;
      }

      .cls-11 {
        letter-spacing: 0em;
      }

      .cls-12 {
        fill: #acb67a;
      }

      .cls-13 {
        fill: #829840;
      }

      .cls-14 {
        letter-spacing: 0em;
      }
    </style>
  </defs>
  <g id="Livello_2" data-name="Livello 2">
    <rect class="cls-13" x="-13.07" y="-12.18" width="1469.11" height="781.79"/>
  </g>
  <g id="Livello_1" data-name="Livello 1">
    <g id="Livello_3" data-name="Livello 3">
      <path class="cls-12" d="M398.8,769.61H-13.07v-298.3c2.79,3.56-3.07-3.31,0,0V46.55H31.88c56.53,0,112.7,29.61,80.98,119.36-.87,2.47.39,5.25.47,7.94.73,23.46,4.92,49.46,11.26,76.28,2.44,10.33,5.2,20.78,8.21,31.25,15.49,53.93,37.51,108.46,55.99,150.15h0c7.76,17.52,14.9,32.75,20.66,44.73h0c8.6,17.89,14.15,28.49,14.15,28.49.01.01.03,0,.04-.01,3.69-.98,259.32-54.86,175.15,264.87Z"/>
      <path class="cls-12" d="M330.94,340.11c-2,66-41.95,130.18-107.3,164.63-.01.01-.03.02-.04.01-5.09,2.7-10.33,5.2-15.72,7.51-6.65,2.85-13.36,5.33-20.1,7.45-3.83,1.21-7.66,2.3-11.5,3.28-71.06,18.09-144.03-2.61-189.35-51.68v-233.09c20.27-24.32,46.88-44.62,78.63-58.22,15.56-6.66,31.44-11.33,47.3-14.09,29.05-5.09,58.05-3.83,85,3.05,52.77,13.46,97.66,48.48,119.62,99.74,9.92,23.15,14.21,47.4,13.46,71.41Z"/>
      <g>
        <path class="cls-8" d="M874.07,327.45c-.62-4.28-7.72-2.2-10.62-3.49-4.03-12.41-7.81-21.93-20.75-26.87-10.52-4.01-19.08-2.89-26.95,5.37-1.57,1.65-6,7.57-6.47,9.59-1.28,5.4,4.27,6.84,6.23,3.27,1.96-3.57,2.49-5.51,5.78-8.54,6.82-6.29,13.9-5.49,21.72-1.45,7.73,4,9.69,10.39,12.51,18.14-4.94,2.21-4.36,10.46,2.2,8.35,1.47,3.9,1.91,8,1.69,12.12-.32.38-5.91-2.66-8.09-.07-2.73,3.25,2.32,5.45,3.92,7.52.27.36.46.35.22.88-.27.59-3.97,3.85-4.4,3.77-3.85-6.93-11.91-3.18-8.77,4.35-3.24,1-6.7.24-9.91-.54.4-1.31.27-2.34-.29-3.58-.2-.43-2.92-4.19-3.16-4.32-2.86-1.62-5.75,1.34-5.73,4.15-1.92-1.12-3.53-2.15-4.69-4.1-1.31-2.19-1.57-5.88-5.01-5.66-3.18.2-2.3,2.57-2.95,4.09-.48,1.11-3.45.92-2.75,4.52.63,3.29.41,6.04.1,9.51-2.63,29.3-19.61,66.08-38.65,88.27-34.52,40.24-88.22,53.02-138.8,60.15-9.66.21-21.18-1.34-30.68.22-1.56.25-2.47,1.25-4.16,1.31-11.56.37-29.55-3.59-40.13-8.31-37.06-16.54-68.53-50.04-82.1-88.36-2.14-6.01-6.97-18.68-7.48-24.51-.19-2.18,1.12-4.41-1.52-5.75-1.64-.83-2.53.31-3.48.23-.25-.02-.65-1.15-1.39-1.52-1.83-.89-3.12-.3-4.52.92-3.41,2.94-6.13,7.77-9.84,10.59-.27-1,.17-1.88,0-2.96-.25-1.55-1.52-3.69-3.2-3.91-7.3-.98-4.01,7.97-4.8,12.24-2.74.27-5.76.26-8.17-1.18-.14-.5,3.51-7.69,3.66-9.45.21-2.54-1.58-4.71-4.2-4.42-.44.04-4.17,1.12-4.5,1.31-1.85,1.07-1.27,3.27-2,4.91-.12.26-.36.98-.75.68-1.1-.69-4.25-10.04-4.14-11.43.12-1.58,6.23-4.13,6.37-6.53l1.91,2.9c6.59,6.97,14-.5,18.38-5.93l3.38-2.82c-.17,3.35-4.34,13.86,1.61,13.72,3.68-.09,4.07-3.7,4.67-6.56,1.01-4.91,3.17-16.94-4.86-16.78-4.42.08-9.34,7.11-12.33,10.03-1.69,1.66-5.53,6.02-5.89,1.33-.52-6.75,7.98-19.31,15.36-18.97,2.12.1,5.9,1.73,6.06-2.26.19-4.72-6.85-4.85-10.2-4.14-9.12,1.92-19.64,16.43-18.28,25.96-1.25-.11-1.61-.96-3.04-.94-1.63.02-2.23.88-3.64,1.29-.68-.68,1.45-12.28,2.62-13.23.48-.38,1.2-.37,1.76-.76,2.7-1.91.63-4.63,1.13-6.67,1.37-5.57,9.79-13.38,14.5-16.48,6.7-4.42,13.68-7.52,21.72-4.29.6,5.21,1.14,11.34,7.68,11.59.63.77-.37,2.19-.37,3.07,0,2.33,1.91,4.65,4.39,4.2,3.3,12.92,6.47,26,11.16,38.48,11.63,30.96,26.01,36.27,58.13,33.72,20.54-1.63,57.15-5.06,72.14-20.23,8.79-8.9,10.67-23.11,10.14-35.14-.11-2.58-.67-5-.77-7.56,2.65,1.76,5.17,3.01,8.44,3.09,8.2.22,17.04-2.34,24.34-5.94,1.96-.97,6.66-4.46,7.99-4.88,1.75-.56,3.44.47,4.52-1.96,1.29-2.88-2.71-9.04-2.72-12.35l6.25-1.74c4.37,14.67,7.71,36.18,22.57,44.06,4.79,2.55,10.93,3.97,16.34,4.38-.43,1.08-1.97,1.19-3.03,1.46-7.05,1.78-14.61,2.65-21.7,4.44.12-3.55-2.68-4.56-5.71-4.66-2.53-.08-5.67.94-7.74.8-1.55-.11-3.03-1.95-4.98-1.17-12.05,3.85-24.45,7.24-35.7,13.13-3.49,1.83-11.68,5.51-8.39,10.39-18.72,8.01-39.61,16.4-55.54,29.3-14.17,11.46-30.56,33.44-8.61,46.79,15.76,9.58,50.02,6.54,67.87,3.88,5.63-.84,11.22-2.11,16.77-3.38,1.11-.05,2.02,1.94,4.06,2.2,6.21.79,14.15-2.15,19.97-4.16.57,3.39,2.32,7.11,6.42,5.94,3.43-.98,1.95-6.26,1.58-8.8,2.91-1.14,5.9-2.11,8.79-3.32,5.21-2.18,15.34-5.92,19.65-8.81,2.48-1.67,2.18-2.87,2.04-5.71,15.03-7.56,30.09-16.55,42.72-27.77,7.79-6.92,21.45-21.34,22.08-32.09.45-7.6-3.41-11.82-8.94-16.26l12.18-3.12c-.33,2.41,1.36,3.91,2.25,5.9.82,1.84,1.66,3.69,2.34,5.59,1.19,3.36,2.24,9.9,3.83,12.52,1.86,3.09,6.51,2.18,6.87-1.36.33-3.15-.88-3.54-1.71-5.88-1.04-2.9-1.73-5.8-2.91-8.69-.82-2-2.89-5.1-3.37-6.69-.45-1.46-.08-2.79-1.09-4.19,13.62-7.48,16.27-26.93,17.86-41.09,1.45-12.84,2.4-25.83,2.59-38.75l2.33,3.94c4.11,3.06,7.36-.75,7.86-4.83,7.21,5.38,9.8-3.75,10.43-9.38,2.34,2.41,4.34,4.15,7.78,2.48,3.19-1.54,3.07-5.19,4.84-7.05.15-.15,2.31-1.76,2.46-1.81,2.04-.7,4.19.3,4.19-3.29-2.05-15.31-5.84-28.73-14.06-41.82-23.26-37.05-70.9-66.3-113.35-74.82-21.72-4.37-50.94-6.53-72.8-3.23-3.31.5-10.3,1.44-8.95,6.22,1.1,3.92,7.05,1.49,9.69,1.16,64.22-7.98,131.89,13.77,172.53,65.24,2.74,3.47,9.64,12.82,10.82,16.68.06.19.13.56-.14.52-7-6.66-15.28-11.87-24.51-14.85-2.71-.87-7.48-1.55-9.73-2.6-.99-.46-1.86-1.96-3.08-2.53-1.99-.94-3.92-.13-5.9-2.01-12.55-.68-25.09-1.83-37.67-1.24-.4-.08-.79-2.5-3.37-2.67-13.09,1.95-26.23,2.21-39.39,2.45-19.92.37-44.01,1.47-60.25-11.98-3.12-2.58-3.38-3.57-5.45-6.62-2.51-3.7-8.73-2.59-7.19,2.79.67,2.35,9.38,10.29,11.68,11.98,16.56,12.2,38.62,11.3,58.26,11.4l-11.5,4.9-7.58,5.27c-4.27-3.1-8.33-6.65-11.85-.3-2.96,5.34-4.47,14.04-3.82,20.06.19,1.8,1.27,4.05,1.36,5.56.4,6.73-2.2,15.8-.56,23.01l1.78,13.13-7.74.41c-1.42-5.59-4.88-11.51-9.97-14.45-7.46-4.31-16.35-.75-23.67,2.1-2.72,1.06-4.61,1.8-7.38,2.75-.59.21-2.82,2.02-3.14,1.7-1.24-11.76-6.58-24.34-14.96-32.76-1.14-1.14-4.59-3.5-5.15-4.33-1.19-1.76-1.81-5.87-3.27-8.3-1.31-2.16-3.59-4.5-6.26-4.6-1.07-.03-5.15.25-6.17.49-2.16.5-2.97,1.77-3.64,3.77-.7.54-5.11-.66-6.33-.82-1.86-.24-4.88-.2-6.48-.63-1-.26-3.24-2.65-4.97-3.42-2.42-1.08-5.66-1.76-8.33-1.72-.13-.47.34-.41.68-.55,5.68-2.39,11.78-4.3,17.55-6.67,13.59-5.6,28.35-11.97,39.99-21,1.82-1.42,7.21-5.67,8.33-7.26,1.69-2.38-.07-5.69-2.93-5.35-1.85.23-6.47,4.87-8.34,6.26-15.27,11.36-37.54,19.92-55.44,26.55-6.8,2.52-15.76,4.7-22.08,7.62-1.47.68-1.65,1.54-2.88,2.43-1.6-2.8-2.67-2.87-5.77-2.5-5.61.66-14.41,3.91-19.89,5.9-15.99,5.8-52.32,21.48-61.27,35.71-6.51,10.36.32,16.12,10.65,17.12,6.52.63,13.64-.34,20.13-.98l-.09,4.95c-1.52-1.15-2.82-1.91-4.82-1.49-3.09.66-7.21,10.59-9.92,12.86-1,.05-2.24-7.35-2.69-8.55-2.21-5.87-8.94-3.38-7.66,2.56.3,1.36,1.3,1.53,1.78,2.49.99,1.96.91,5.01,2.08,7.04-8.16,3.03-15.7,8.24-21.65,14.56.61-27.21,7.14-55.23,20.5-78.96,10.67-18.97,27.68-39.29,46.09-51.06.88-.56,5.03-3.28,5.59-3.36.86-.12,1.76,2.34,4.43,1.32.6-.22,4.17-4.38,4.44-5.06.73-1.84.74-4.28-.96-5.56-1.61-1.22-3.14-.08-4.45-.64-.29-.13-2.87-3.22-3.31-3.78-1.51-1.92-10.32-15.64-9.42-16.92,3.72,2.1,7.07,4.98,10.12,7.94,2.12,2.05,5.56,7.23,8.5,7.34,2.86.1,4.44-2.15,4.07-4.9-.3-2.33-3.85-8.45-4.85-11.41-1.32-3.89-2.95-10.32-.96-14.11.2-.39.43-.89.98-.84,2.01.19,6.54,5.59,7.86,7.3,4.72,6.13,10.05,17.6,15.03,22.42,3.61,3.48,7.67-.58,5.55-4.68-6.52-8.44-11.33-19.58-18.86-27.11-14.07-14.08-22.06,2.16-17.69,15.77-3.9-3.57-15.31-10.53-17.65-1.97-1.54,5.68,5.34,16.45,8.64,21.14l5.84,7.48c-18.47,8.94-33.52,25.01-45.41,41.45-21.85,30.18-29.84,62.58-31.77,99.49-.19,3.62.24,7.77-.13,11.29-.18,1.74-2.13,5.53-2.76,7.57-1.97,6.48-2.88,13.07-2.53,19.85-2.12,3.02-11.57,6.1-8.13,11.06,2.49,3.58,7.25-1.28,9.71-2.42,1.18,5.39,3.4,10.81,7.45,14.66-1.8,4.63-9.85,14.87.45,14.41-7.64,28.93-7.3,59.98,2.74,88.31,2.31,6.52,9.71,26.34,19.47,19.88,6.06-4.01,8.99-18.64,11.29-25.38.25-.71.39-1.83,1.1-2.19.79,10.42,2.53,21.02,5,31.17,1.76,7.22,6.22,24.2,12.45,28.29,6.38,4.19,10.92-4.75,12.27-9.73l5.4-19.45c4.29,19.69,10.27,40.3,21.45,57.23,4.08,6.18,14.71,20.87,22.8,11.94,6.12-6.75,7.48-31.89,8.38-41.42.06-.62-.22-.58.66-.56,3.05,16.35,7.23,34.6,17.92,47.74,5.2,6.39,15.1,15.27,23.68,9.32,2.87-2,9.24-12.22,4.34-14.03-6.22-2.3-5.07,10.52-12.42,8.22-10.14-3.16-18.14-21.21-21.1-30.57-6.43-20.28-8.19-41.66-11.5-62.59l.84-4.8c11.22,5.92,23.03,10.41,35.75,11.85l5.36,33.48c-.14,1.15-3.45.35-4.28.37-2.3.07-5.84-.18-7.31,1.83-2.15,2.96.51,7.7,4.05,6.33.63-.25.94-.95,1.34-1.14,1.18-.57,5.4.18,7.04-.04,1.09.57,1.79,9.32,2.35,11-2.95.71-9.26-2.56-10.34,1.59-1.2,4.56,5.19,4.89,8.1,5.19,18.34,1.91,40.92-.8,59.42-2.41,30.74-2.66,58.12-5.73,86.16-19.68,1.85-.92,5.73-3.76,7.29-4.17.98-.26,2.12.38,3.55-.15,1.95-.73,1.93-3.09,3.1-4.25,1.81-1.8,5.37-3.42,7.3-5.33,4.92,8.73,11.44,17.89,19.44,24.05,7.56,5.83,13.66,6.43,19.86-1.58,6.81-8.8,7.77-22.01,8.13-32.75l3.45,6.41c2.88,4.42,7.76,9.52,13.32,5.84,6.25-4.14,8.9-22.59,9.41-29.76.73-10.3-.32-20.55-1.58-30.77l5.67,10.66c10.92,17.51,24.95,19.97,30.18-3.02,2.88-12.63,2.46-26.62,2.3-39.52-.2-16.93-.92-33.82-3.03-50.67-1.3-10.4-3.51-20.66-5.17-30.98l3.16-.34c-1.12-1.7-5.8-4.48-3.89-6.87.46-.57,3.86-2.65,4.91-3.62.97-.88,1.74-2.03,2.68-2.95,2.04,2.25,8.59,6.15,10.47,2.04,1.82-4-4.46-6.46-6.1-9.18,1.13-3.33,1.43-6.5,1.56-9.99l-1.43-7.83c3.43-.02,9.35.76,8.59-4.52ZM557.61,458.37c8.16-12.93,23.11-21.75,36.52-28.31l.55,23.46-40.55,13.62c.04-3.22,1.82-6.15,3.48-8.77ZM570.12,482.71c-5.96-1.33-11.03-3.49-14.9-8.39l40.2-13.26,1.96,23.56c-9.1.44-18.35.09-27.26-1.91ZM601.75,447.5c-.59-5.08-1.14-13.29-.97-18.34.02-.77.09-2.27.57-2.84,10.54-5.09,21.29-9.88,32.43-13.55l-.57,28.49-30.9,9.9c.14-1.28-.42-2.44-.56-3.66ZM605.09,484.06l-.94-4.55-1.27-20.62,30.36-9.72,1.63,30.97c-9.8,2.06-19.81,3.42-29.78,3.92ZM674.76,400.71l-.29,27.06-33.66,11.11-.46-28.58c11.25-3.9,22.78-7,34.41-9.59ZM670.88,469.75c-.67-.17-.97-3.77-3.52-4.29-4.02-.82-5.74,3.39-4.37,6.65l-.28.39-20.51,5.86c-.75-6.34-1.2-12.79-1.39-19.19-.02-.83.27-1.62.26-2.46-.04-1.65-.87-9.27-.11-9.99l33.54-11.04.51,32.48-4.13,1.59ZM475.83,340.98c-.71-.1-.64-.69-.77-1.2-.41-1.65-1.19-5.78-1.11-7.36.07-1.22.94-3.68,1.89-4.5-.43,4.34-.31,8.71-.01,13.06ZM712.2,450.99c-9.64,5.29-19.45,10.4-29.77,14.29l-.21-32.04,30.06-10.16-.08,27.91ZM712.21,415.13l-30.14,10.26-.18-26.15,31.93-6.96-1.61,22.85ZM755.62,415.65c-9.39,12.75-23.04,22.9-36.43,31.08l.75-26.48,40.84-13.87c-.93,3.38-3.11,6.48-5.16,9.27ZM761.53,400.69c-1.42-1.13-2.62-1.06-4.35-.73l-36.99,12.46.71-20.98.48-.58c1.89.1,3.75-.57,5.54-.71,1.61-.12,3.36.27,4.61.15s2.22-1.24,3.8-1.3c5.15-.17,12.61,1.05,17.36,3.08,3.59,1.54,8.11,4.46,8.84,8.61ZM825.58,261l.35-2.86c1.09,3.1,2.29,6.18,3.15,9.36.41,1.52,2.29,8.09,1.35,8.94-.3.28-1.07.34-1.5.66-1.83,1.34-2.95,5.1-3.73,7.21-.66.55-2.13-7.02-5.52-7.46-5.66-.73-6.11,7.03-6.64,10.93l-1.97-6.57c-1.74-3.44-7.15-3.11-7.49,1.07-1.96-.55-3.38-1.66-5.29-.07l-.73-9.88c4.04-.92,8.44-.97,12.59-1.75,5.89-1.09,13.67-3.04,15.43-9.58ZM814.8,254.31c4.62,4.06,5.06,5.95-1.28,7.91-2.01.62-15.96,3.05-16.84,2.38-1.1-7.5-3.26-14.7-5.43-21.92,8.46,1.81,17.02,5.9,23.55,11.63ZM756.73,239.9c3.45-.01,10.18,1.26,13.12.11.75-.3,1.6-1.39,1.94-1.46.69-.14,9.05,1.32,10.09,1.68.43.15.89.14,1.11.64,2.35,7.93,4.96,15.78,6.27,23.98l-.55.86-20.37.8c-18.62-.86-37.5.62-56.08-.22-4.04-.19-8.95-.47-12.87-1.35-10.64-2.37-5.3-7.08.74-10.91,15.72-9.95,38.16-14.08,56.6-14.13ZM669.45,276.04l.17-.36c7.96-2.56,8.2-13.73,8.77-20.76,8.73-10.51,23.68-13.44,36.47-15.96l-7.34,2.95c-7.88,3.67-25.39,11.62-21.03,22.85,3.76,9.66,26.64,9.03,35.34,9.14,18.62.24,38.59.4,57.12-.19,3.7-.12,7.44-.31,11.07-.95,1.74,15.18,2.02,30.39.96,45.63-.91,13.19-2.68,44.56-12.09,53.83-10.35,10.18-35.35,9.23-48.9,8.21-9.13-.69-27.65-2.21-35.25-6.62-7.56-4.38-11.21-15.6-13.73-23.51-4.09-12.81-7.02-26.77-9.24-40.06-1.88-11.28-3.51-22.75-2.32-34.2ZM665.28,315.04l2.44,13.41c-.26.95-4.93,1.73-5.99,2.29l-3.43-14.27,6.98-1.43ZM650.97,317.92l3.23,14.3c-.76.1-1.69.35-2.33.76-.92.59-.97,1.38-1.44,1.72-.61.45-1.68.39-2.57,1.04-1.81,1.31-1.98,3.63-.22,5.09,2.42,2.02,5.71-.21,8.42-.43l1.55,5.77c-4.32,3.7-10.1,6.51-15.57,8.14-3.75,1.12-12.1,3.07-15.52,1.09-2.14-1.25-3.93-4.53-5.02-6.72-2.94-5.93-3.56-13.68-4.19-20.33-.12-1.33-.13-2.69-.2-4.03l33.86-6.4ZM624.9,301.99c4.24-1.75,12.3-4.47,16.62-2.82,3.58,1.36,6.47,6.41,7.23,10.04l-32.55,7.69c-.43-.13-.51-.43-.59-.82-.56-2.43-.57-5.21-1.39-7.65.22-1.56,8.95-5.72,10.68-6.44ZM581.16,265.12c.84.51,2.9,1.04,3.5,1.68.94,1.01.14,4.84-.09,6.26-1.02-.73-3.78-7.4-3.41-7.94ZM559.78,264.15c.35-.76,1.01-3.75,1.58-3.96l11.72,2.16c.75,2.33-.16,5.73,1.01,7.83.42.75,1.26,1.11,1.73,1.81.69,1.01,1.06,2.58,1.71,3.69,5.66,9.68,12.76,8.23,14.63-2.67,5.11,5.31,9.63,13.42,11.49,20.58.93,3.57-.04,4.1.15,6.51.12,1.54,1.62,3.35,1.96,4.94.98,4.61-1.7,9.59-.55,14.37-5.45,1.73-4.97,7.45,1.03,7.28.82,3.81,2.04,7.51,3.14,11.24,2.71,9.18,3.87,16.26,4.54,25.91,1.61,23.23-2.18,36.35-25.41,43.88-16.66,5.41-41.97,9.05-59.46,9.2-24.28.22-32.76-7.93-40.99-29.7-5.08-13.46-8.5-27.65-11.63-41.68.6.27.74,1.1,1.31,1.71,1.84,1.93,5.57,1.92,6.06-.94.34-1.99-.91-4.22-.99-6.23-.35-7.81,1.56-18.44.42-25.79-.7-4.5-4.71-6.16-8.05-2.9l-2.78,4.7c-.36-4.22-.22-8.48.46-12.65,19.34-4.58,38.67-10.92,56.96-18.64,9.92-4.19,25.15-10.44,29.96-20.65ZM522.88,260.45c10.01-1.58,20.37-.61,30.46-.92-1.35,5.85-7.97,9.63-12.98,12.29-7.96,4.25-17.25,7.85-25.72,11.05-13.22,4.99-26.72,9.5-40.52,12.65,1.77-13.83,13.8-22.43,25.6-27.76,7.24-3.27,15.29-6.08,23.16-7.31ZM461.04,297.99c-4.92.55-14.04,1.13-18.69-.1-3.66-.97-3.93-1.85-1.96-5.08,5.21-8.54,22.7-17.33,31.74-21.72,8.85-4.29,17.98-8.21,27.24-11.52l-9.62,4.91c-11.49,6.66-19.06,14.61-22.6,27.61-.31,1.13-.59,4.66-1.4,5.11-.29.17-3.96.71-4.71.79ZM533.42,547.43c.67,2.9.46,4.03.25,7.09-.57,8.35-2.17,28.3-5.42,35.36-1.53,3.31-2.5,2.68-4.97.55-16.77-14.45-26.95-55.83-29.84-77.17-.35-2.58.17-8.09-3.54-8.74-4.36-.76-4.77,2.63-5.61,5.88-1.04,4.01-8.27,39.27-10.61,39.4-5.15-8.43-7.72-19.01-9.75-28.67-3.03-14.43-5.18-31.22-4.22-45.94.17-2.61,1.4-7.53,1.22-9.63-.12-1.57-1.59-3.44-3.18-3.57-4.82-.38-4.4,4.97-5.3,8.34-3.46,12.94-7.71,33.79-13.51,45.18-1.99,3.91-2.2,4.09-4.78.34-2.89-4.21-5.44-11.13-7.02-16.05-7.44-23.12-8.05-45.7-4.31-69.55.82-5.27,3.53-13.81,3.69-18.48.04-1.16-.5-2.18-1.07-3.13,3.65,1.3,7.46,2.39,11.39,1.86l-.42,12.03c2.04-.06,4.1-.29,6.15-.33.15,0,.6.33,1.08.33,3.9-.03,4.46-5.58.51-6.66l.46-8.26c5.01-3.68,9.44-7.96,13.44-12.71l.55.67.65-1.09c4.22,17.12,8.91,34.98,18.13,50.13,1.28,2.11,2.74,4.16,4.12,6.22,13.97,20.9,30.7,39.3,52.64,51.98l.02.51c-2.71,2.36-.49,3.97-.05,6.04.23,1.06.39,4.01-.11,4.89-.29.53-1.14.8-1.31,1.17-.32.74,1.27.57,1.65,1.14.25.37.25.8.27,1.23.32,6.39-.83,14.31-1.03,20.89-.06,1.85-.47,7.45-.17,8.75ZM586.27,521.23c6.43-.05,13.54,1.37,19.91.32,1.91-.32,3.64-1.51,5.58-1.69,9.2-.86,18.55,1.01,28.21-.42,9.47-1.41,20.51-3.85,29.96-5.89,21.33-4.59,42.32-12.39,61.86-21.93.64,3.79.61,7.61.95,11.44.07.83.44,1.58.51,2.41.21,2.74,1.07,11.53.55,13.6-.48,1.92-5.63,4.41-7.43,5.38-32.16,17.29-77.73,24.97-113.92,28.23l-20.52,1.04-5.66-32.49ZM722.76,552.39c-29.25,13.19-62.15,15.92-93.82,18.15-11.29.79-22.69,1.28-33.98,1.44l-1.63-10.87,17.78-.92c25.35-2.9,50.32-5.6,74.9-12.71,16.67-4.81,33.2-10.65,48.45-18.92l1.08,16.89c-3.98,2.77-8.37,4.95-12.78,6.94ZM742.5,540.49l-.93-17.43c0-.07.26-1.39.64-1.27l6.03,13.99c.03,1-4.61,4.3-5.74,4.71ZM855.29,458.77c0,10.09-.3,30.71-5.15,39.29-2.89,5.1-5.72,2.89-9.02-.42-11.86-11.88-16.03-35.82-22.55-50.98-1.26-2.08-4.24-2.64-5.98-.84-1.51,1.57-1.25,4.1-1.08,6.09,2.3,27.04,13.42,56.5,2.72,83.24-.53,1.34-1.07,3.64-2.58,2.75-6.44-3.8-14.22-36.77-17.51-44.65-2.31-4.16-7.45-2.32-7.12,2.3.23,3.26,2.1,8.67,2.73,12.28,2.51,14.32,4.47,35.51-1.76,48.97-1.11,2.4-3.94,7.29-6.95,7-2.87-.27-8.88-6.17-10.93-8.37-9-9.64-16.46-23.94-21.07-36.21-1.26-3.34-6.71-21.75-7.99-22.81-.58-.48-1.64-.48-1.95-1.19-1.05-2.39-.22-4.87-.1-7.27,16.45-9.18,29.98-22.72,41.59-37.41,12.33-15.59,22.31-37.61,28.48-56.52,3.91-12,5.92-23.72,5.91-36.42,2.42.14,2.71,3.33,3.51,4.3.68.84,4.36,1.87,4.8,2.67.88,3.74-.93,13.91,5.85,11.98,3.1-.88,2.17-6.78,2.94-9.27,3.81,1.11,7.74,1.1,11.61.5.99,3.24.9,6.33,4.3,8.08.69,5.85,1.91,11.63,2.75,17.45,3.09,21.6,4.55,43.7,4.55,65.46Z"/>
        <path class="cls-8" d="M845.29,332.2c-1.63-7.2-6.9-26.43-17.65-20.9-3.02,1.56-10.51,10.99-4.88,12.42,4.49,1.13,4.81-4.7,8-6.29,1.72-.26,3.29,3.66,3.86,5.02.31.72,1.97,5.4,1.8,5.64-12.92-4.98-16.15,11.94-6.95,18.38,4.3,3,9.45,2.67,13.52-.56,5-3.98,3.54-8.26,2.3-13.71ZM831.87,334.72c1.52-.93,7.41,3.95,7.27,4.69-3.74,4.1-8.58.03-7.27-4.69Z"/>
        <path class="cls-8" d="M535.15,470.15c.42.64,2.01.47,2.13,2.96.29,5.73-7.52,8.58-8.96,2.21-.95-4.21-1.01-16.35-.32-20.69.33-2.08,1-4.26,3.39-4.68,2.72-.48,5.21,2.55,4.58,5.15-.15.6-.95,1.01-1.21,1.59-.42.92.02,12.89.39,13.46Z"/>
        <path class="cls-8" d="M579.85,323.45c-14.39-12.04-33.2-15.67-50.43-7.15-7.95,3.93-19.3,12.3-24.78,19.27-3.74,4.74,1.02,8.82,5.22,5.37,1.2-.98,2.32-2.76,3.5-3.9,5.34-5.13,11.26-9.96,18-13.13-.07,3.9-.72,8.2,1.67,11.56l-15.64,3.53c-.65.15-1.98.93-2.33,1.42-.33.47-.36.94-.38,1.5-.15,3.53,1.66,4.46,4.97,4.15,5.6-.52,12.21-2.92,17.84-4.06,9.27-1.89,18.85-3.68,28.25-4.75,5.08-.58,15.36.16,18.88-3.46,3.09-3.19-2.24-8.23-4.77-10.35ZM542.46,333.56c1.37-4.51,1.86-9.52,1.71-14.21,11.98-1.25,23.34,2.33,32.29,10.29-11.45.38-22.78,1.69-34,3.92Z"/>
        <path class="cls-8" d="M568.89,348.14c3.64-.93,6.11,2.8,3.2,5.56-3.51,3.33-10.39,7.32-14.57,10.35-2.65,1.92-10.84,8.98-13.18,9.59-4.3,1.13-6.08-2.09-4.11-5.71,9.25-7.02,18.8-13.66,28.67-19.8Z"/>
        <path class="cls-8" d="M759.19,296.45c-5.31-2.21-12.51-3.07-18.19-2.27-13.75,1.93-28.17,13.08-36.96,23.39-.76.89-3.28,3.98-3.52,4.88-.64,2.31.36,3.25,2.11,4.53,2.62,1.92,4.15,1.49,7.28,1.25,12.15-.96,26-3.51,38.09-5.62,4.45-.77,20.47-3.17,23.19-5.28.3-.23.41-.88.69-1.05,1.18-.75,3.87-.2,4.09-3.03.48-6.34-11.56-14.62-16.78-16.8ZM711.11,321.08c6.3-7.51,14.71-14.34,24.11-17.51-1.39,4.15-1.14,9.52,1.06,13.35l-25.17,4.16ZM748.52,314.86c.78-4.46.72-9.24-1.41-13.34,7.9-.27,15.96,3.9,20.98,9.83l-19.57,3.51Z"/>
        <path class="cls-8" d="M710.21,332.52c2.72-.61,11.86,1.7,15.11,2.4,6.05,1.29,15.12,3.05,20.66,5.34,4.98,2.06,3.66,7.76-1.47,7.22-6.75-2.01-13.56-3.92-20.39-5.63-4.23-1.06-10.57-1.81-14.29-3.11-3.25-1.13-2.94-5.48.39-6.22Z"/>
      </g>
      <path class="cls-2" d="M405.24,362.14l-119.61-35.46c-.8-.24-1.65.13-2.02.88l-106.41,213.38c-.87,1.74-3.5.93-3.24-1l32.18-235.31c.11-.84-.4-1.64-1.21-1.88l-119.58-35.45c-1.59-.47-1.65-2.71-.08-3.26l117.67-41.64c.76-.27,1.23-1.03,1.13-1.82l-22.77-189.54c-.22-1.85,2.25-2.68,3.19-1.07l95.43,163.29c.5.85,1.61,1.11,2.44.56l178.88-119.69c1.59-1.07,3.47.89,2.34,2.44l-132.53,181.71c-.45.61-.44,1.45.02,2.06l76.02,99.12c1.01,1.32-.26,3.16-1.85,2.69Z"/>
      <path class="cls-12" d="M1456.04-12.18h-241.79c-96.55,93.15-6.92,215.94,47.14,250.32-3.83.61-7.66,1.33-11.5,2.16-48.26,10.45-88.82,36.35-116.72,70.66-1.72,2.1-3.38,4.24-5,6.41-29.96,40.19-43.13,90.71-32.2,141.19,2.84,13.12,7.17,25.57,12.78,37.23,7.32,15.19,16.83,29.06,28.11,41.34,3.43,3.74,7.03,7.34,10.78,10.78,13.79,12.66,29.64,23.25,46.95,31.4,38.86,18.31,85.06,24.38,131.83,14.25,56.32-12.2,102.15-45.44,129.62-88.53,0,0,2.95-488.83,0-517.21ZM1283.97,200.46c-.05-.37-.09-.69-.12-.98l.12.98ZM1283.69,198.16v.04s-.01-.04-.01-.04h.01Z"/>
      <path class="cls-12" d="M1289.46,244c-.1-.78-.22-1.72-.35-2.78l.35,2.78Z"/>
      <path class="cls-12" d="M1288.61,237.25c.18,1.46.35,2.79.5,3.97l-.5-3.97Z"/>
      <path class="cls-12" d="M1289.64,245.41l-.11-.89c.04.33.08.63.11.89Z"/>
      <path class="cls-2" d="M1289.69,582.44l-85.66-25.39c-.53-.16-1.08.12-1.28.63l-53.66,142.38c-.41,1.09-2.03.79-2.02-.37l.61-158.56c0-.46-.3-.87-.75-1.01l-85.84-25.45c-.97-.29-1.01-1.65-.05-1.99l84.36-29.85c.46-.16.74-.62.69-1.1l-19.74-181.15c-.13-1.19,1.51-1.63,2-.54l71.88,162.21c.24.55.9.78,1.44.5l136.23-71.11c1.03-.54,2.04.76,1.26,1.62l-102.73,115.23c-.33.37-.35.93-.05,1.33l54.44,70.98c.62.8-.16,1.93-1.13,1.64Z"/>
    </g>
    <text class="cls-5" transform="translate(25.98 477.13)"><tspan x="0" y="0">s</tspan><tspan class="cls-9" x="83.7" y="0">o</tspan><tspan class="cls-11" x="172.8" y="0">t</tspan><tspan x="256.95" y="0">ti</tspan></text>
    <text class="cls-5" transform="translate(856.84 477.65)"><tspan x="0" y="0">grafi</tspan><tspan class="cls-6" x="389.46" y="0">c</tspan><tspan x="476.09" y="0">s</tspan></text>
    <text class="cls-4" transform="translate(41.85 307.96)"><tspan x="0" y="0">ci</tspan><tspan class="cls-14" x="23" y="0">a</tspan><tspan x="38.96" y="0">o! qu</tspan><tspan class="cls-10" x="101.84" y="0">e</tspan><tspan x="116.44" y="0">s</tspan><tspan class="cls-7" x="131.32" y="0">t</tspan><tspan x="145.72" y="0">o è</tspan></text>
    <text class="cls-4" transform="translate(1259.71 521.82)"><tspan x="0" y="0">benvenu</tspan><tspan class="cls-7" x="110.72" y="0">t</tspan><tspan x="125.12" y="0">o!</tspan></text>
    <path class="cls-2" d="M847.54,221.91c3.35-27.65,5.96-55.39,7.82-83.18.52-7.83.99-15.67,1.39-23.51.14-2.62-2.4-5.12-5-5-2.82.13-4.85,2.2-5,5-1.44,27.81-3.62,55.59-6.55,83.29-.83,7.81-1.71,15.61-2.66,23.4-.32,2.61,2.52,5.11,5,5,2.98-.13,4.66-2.21,5-5h0Z"/>
    <path class="cls-2" d="M865.68,235.2c21.7-16.75,44.28-32.33,67.66-46.64,6.54-4.01,13.15-7.91,19.81-11.72,2.27-1.3,3.25-4.59,1.79-6.84s-4.41-3.18-6.84-1.79c-23.79,13.61-46.85,28.49-69.04,44.58-6.21,4.5-12.35,9.1-18.43,13.79-1.08.83-1.92,1.61-2.3,2.99-.33,1.2-.18,2.79.5,3.85,1.31,2.04,4.63,3.5,6.84,1.79h0Z"/>
    <path class="cls-2" d="M870.26,271.97c18.41,1,36.79,2.4,55.13,4.21,5.18.51,10.36,1.06,15.54,1.63,2.61.29,5.11-2.51,5-5-.13-2.96-2.21-4.69-5-5-18.32-2.04-36.68-3.67-55.07-4.9-5.2-.35-10.39-.66-15.59-.94-2.62-.14-5.12,2.4-5,5,.13,2.83,2.2,4.85,5,5h0Z"/>
    <g>
      <path class="cls-1" d="M835.64,220.56c3.76-31.03,6.45-62.19,8.06-93.41"/>
      <path class="cls-3" d="M839.39,220.56c2.92-24.14,5.2-48.35,6.83-72.61.46-6.93.87-13.87,1.23-20.8.1-1.96-1.8-3.84-3.75-3.75-2.12.09-3.64,1.65-3.75,3.75-1.26,24.28-3.16,48.53-5.71,72.71-.73,6.91-1.51,13.81-2.35,20.71-.24,1.95,1.89,3.83,3.75,3.75,2.23-.1,3.5-1.66,3.75-3.75h0Z"/>
    </g>
    <g>
      <path class="cls-1" d="M853.69,228.42c24.31-18.77,49.92-35.86,76.58-51.1"/>
      <path class="cls-3" d="M855.58,231.65c18.98-14.65,38.74-28.28,59.19-40.81,5.75-3.52,11.55-6.95,17.39-10.3,1.76-1.01,2.36-3.39,1.35-5.13s-3.37-2.35-5.13-1.35c-20.81,11.91-40.98,24.92-60.4,38.99-5.46,3.95-10.85,7.99-16.18,12.11-1.6,1.24-2.46,3.22-1.35,5.13.92,1.58,3.52,2.59,5.13,1.35h0Z"/>
    </g>
    <g>
      <path class="cls-1" d="M859.91,260.01c20.67,1.12,41.3,2.82,61.87,5.11"/>
      <path class="cls-3" d="M859.91,263.76c20.67,1.12,41.3,2.82,61.87,5.11,1.96.22,3.83-1.88,3.75-3.75-.1-2.22-1.65-3.52-3.75-3.75-20.57-2.29-41.2-3.99-61.87-5.11-1.96-.11-3.84,1.8-3.75,3.75.1,2.12,1.65,3.64,3.75,3.75h0Z"/>
    </g>
  </g>
</svg>