<?xml version="1.0" encoding="UTF-8"?>
<svg xmlns="http://www.w3.org/2000/svg" version="1.1" viewBox="0 0 1440 853.5">
  <!-- Generator: Adobe Illustrator 29.0.0, SVG Export Plug-In . SVG Version: 2.1.0 Build 186)  -->
  <defs>
    <style>
      .st0 {
        fill: #99a85f;
      }

      .st1 {
        fill: #c7cca5;
      }

      .st2, .st3, .st4 {
        fill: #1d1d1b;
      }

      .st5 {
        stroke: #1d1d1b;
        stroke-miterlimit: 10;
        stroke-width: 2px;
      }

      .st3 {
        font-size: 40px;
      }

      .st3, .st4 {
        font-family: BebasNeue-Regular, 'Bebas Neue';
      }

      .st4 {
        font-size: 225px;
      }

      .st6 {
        fill: #acb67a;
      }

      .st7 {
        fill: #829840;
      }
    </style>
  </defs>
  <g id="Livello_2">
    <rect class="st7" x="-13.1" y="-10.7" width="1469.1" height="876.9"/>
  </g>
  <g id="Livello_1">
    <g id="Livello_3">
      <path class="st6" d="M398.8,866.1H-13.1v-298.3c2.8,3.6-3.1-3.3,0,0V143.1H31.9c56.5,0,112.7,29.6,81,119.4-.9,2.5.4,5.2.5,7.9.7,23.5,4.9,49.5,11.3,76.3,2.4,10.3,5.2,20.8,8.2,31.2,15.5,53.9,37.5,108.5,56,150.2h0c7.8,17.5,14.9,32.8,20.7,44.7h0c8.6,17.9,14.1,28.5,14.1,28.5,0,0,0,0,0,0,3.7-1,259.3-54.9,175.2,264.9Z"/>
      <path class="st6" d="M330.9,436.6c-2,66-41.9,130.2-107.3,164.6,0,0,0,0,0,0-5.1,2.7-10.3,5.2-15.7,7.5-6.6,2.8-13.4,5.3-20.1,7.5-3.8,1.2-7.7,2.3-11.5,3.3-71.1,18.1-144-2.6-189.4-51.7v-233.1c20.3-24.3,46.9-44.6,78.6-58.2,15.6-6.7,31.4-11.3,47.3-14.1,29.1-5.1,58.1-3.8,85,3.1,52.8,13.5,97.7,48.5,119.6,99.7,9.9,23.1,14.2,47.4,13.5,71.4Z"/>
      <g>
        <path class="st5" d="M874.1,424c-.6-4.3-7.7-2.2-10.6-3.5-4-12.4-7.8-21.9-20.8-26.9-10.5-4-19.1-2.9-27,5.4-1.6,1.6-6,7.6-6.5,9.6-1.3,5.4,4.3,6.8,6.2,3.3,2-3.6,2.5-5.5,5.8-8.5,6.8-6.3,13.9-5.5,21.7-1.5,7.7,4,9.7,10.4,12.5,18.1-4.9,2.2-4.4,10.5,2.2,8.3,1.5,3.9,1.9,8,1.7,12.1-.3.4-5.9-2.7-8.1,0-2.7,3.2,2.3,5.5,3.9,7.5.3.4.5.3.2.9-.3.6-4,3.8-4.4,3.8-3.8-6.9-11.9-3.2-8.8,4.4-3.2,1-6.7.2-9.9-.5.4-1.3.3-2.3-.3-3.6-.2-.4-2.9-4.2-3.2-4.3-2.9-1.6-5.8,1.3-5.7,4.1-1.9-1.1-3.5-2.1-4.7-4.1-1.3-2.2-1.6-5.9-5-5.7-3.2.2-2.3,2.6-2.9,4.1-.5,1.1-3.4.9-2.8,4.5.6,3.3.4,6,.1,9.5-2.6,29.3-19.6,66.1-38.7,88.3-34.5,40.2-88.2,53-138.8,60.2-9.7.2-21.2-1.3-30.7.2-1.6.2-2.5,1.2-4.2,1.3-11.6.4-29.6-3.6-40.1-8.3-37.1-16.5-68.5-50-82.1-88.4-2.1-6-7-18.7-7.5-24.5-.2-2.2,1.1-4.4-1.5-5.8-1.6-.8-2.5.3-3.5.2-.2,0-.7-1.2-1.4-1.5-1.8-.9-3.1-.3-4.5.9-3.4,2.9-6.1,7.8-9.8,10.6-.3-1,.2-1.9,0-3-.2-1.5-1.5-3.7-3.2-3.9-7.3-1-4,8-4.8,12.2-2.7.3-5.8.3-8.2-1.2-.1-.5,3.5-7.7,3.7-9.5.2-2.5-1.6-4.7-4.2-4.4-.4,0-4.2,1.1-4.5,1.3-1.9,1.1-1.3,3.3-2,4.9-.1.3-.4,1-.8.7-1.1-.7-4.2-10-4.1-11.4.1-1.6,6.2-4.1,6.4-6.5l1.9,2.9c6.6,7,14-.5,18.4-5.9l3.4-2.8c-.2,3.4-4.3,13.9,1.6,13.7,3.7,0,4.1-3.7,4.7-6.6,1-4.9,3.2-16.9-4.9-16.8-4.4,0-9.3,7.1-12.3,10-1.7,1.7-5.5,6-5.9,1.3-.5-6.8,8-19.3,15.4-19,2.1,0,5.9,1.7,6.1-2.3.2-4.7-6.9-4.8-10.2-4.1-9.1,1.9-19.6,16.4-18.3,26-1.2-.1-1.6-1-3-.9-1.6,0-2.2.9-3.6,1.3-.7-.7,1.4-12.3,2.6-13.2.5-.4,1.2-.4,1.8-.8,2.7-1.9.6-4.6,1.1-6.7,1.4-5.6,9.8-13.4,14.5-16.5,6.7-4.4,13.7-7.5,21.7-4.3.6,5.2,1.1,11.3,7.7,11.6.6.8-.4,2.2-.4,3.1,0,2.3,1.9,4.6,4.4,4.2,3.3,12.9,6.5,26,11.2,38.5,11.6,31,26,36.3,58.1,33.7,20.5-1.6,57.2-5.1,72.1-20.2,8.8-8.9,10.7-23.1,10.1-35.1-.1-2.6-.7-5-.8-7.6,2.6,1.8,5.2,3,8.4,3.1,8.2.2,17-2.3,24.3-5.9,2-1,6.7-4.5,8-4.9,1.8-.6,3.4.5,4.5-2,1.3-2.9-2.7-9-2.7-12.3l6.2-1.7c4.4,14.7,7.7,36.2,22.6,44.1,4.8,2.5,10.9,4,16.3,4.4-.4,1.1-2,1.2-3,1.5-7.1,1.8-14.6,2.7-21.7,4.4.1-3.5-2.7-4.6-5.7-4.7-2.5,0-5.7.9-7.7.8-1.5-.1-3-2-5-1.2-12.1,3.8-24.4,7.2-35.7,13.1-3.5,1.8-11.7,5.5-8.4,10.4-18.7,8-39.6,16.4-55.5,29.3-14.2,11.5-30.6,33.4-8.6,46.8,15.8,9.6,50,6.5,67.9,3.9,5.6-.8,11.2-2.1,16.8-3.4,1.1,0,2,1.9,4.1,2.2,6.2.8,14.2-2.2,20-4.2.6,3.4,2.3,7.1,6.4,5.9,3.4-1,1.9-6.3,1.6-8.8,2.9-1.1,5.9-2.1,8.8-3.3,5.2-2.2,15.3-5.9,19.7-8.8,2.5-1.7,2.2-2.9,2-5.7,15-7.6,30.1-16.6,42.7-27.8,7.8-6.9,21.4-21.3,22.1-32.1.5-7.6-3.4-11.8-8.9-16.3l12.2-3.1c-.3,2.4,1.4,3.9,2.2,5.9.8,1.8,1.7,3.7,2.3,5.6,1.2,3.4,2.2,9.9,3.8,12.5,1.9,3.1,6.5,2.2,6.9-1.4.3-3.2-.9-3.5-1.7-5.9-1-2.9-1.7-5.8-2.9-8.7-.8-2-2.9-5.1-3.4-6.7-.4-1.5,0-2.8-1.1-4.2,13.6-7.5,16.3-26.9,17.9-41.1,1.4-12.8,2.4-25.8,2.6-38.8l2.3,3.9c4.1,3.1,7.4-.8,7.9-4.8,7.2,5.4,9.8-3.8,10.4-9.4,2.3,2.4,4.3,4.2,7.8,2.5,3.2-1.5,3.1-5.2,4.8-7,.1-.2,2.3-1.8,2.5-1.8,2-.7,4.2.3,4.2-3.3-2.1-15.3-5.8-28.7-14.1-41.8-23.3-37-70.9-66.3-113.3-74.8-21.7-4.4-50.9-6.5-72.8-3.2-3.3.5-10.3,1.4-8.9,6.2,1.1,3.9,7.1,1.5,9.7,1.2,64.2-8,131.9,13.8,172.5,65.2,2.7,3.5,9.6,12.8,10.8,16.7,0,.2.1.6-.1.5-7-6.7-15.3-11.9-24.5-14.8-2.7-.9-7.5-1.5-9.7-2.6-1-.5-1.9-2-3.1-2.5-2-.9-3.9-.1-5.9-2-12.6-.7-25.1-1.8-37.7-1.2-.4,0-.8-2.5-3.4-2.7-13.1,2-26.2,2.2-39.4,2.5-19.9.4-44,1.5-60.2-12-3.1-2.6-3.4-3.6-5.4-6.6-2.5-3.7-8.7-2.6-7.2,2.8.7,2.3,9.4,10.3,11.7,12,16.6,12.2,38.6,11.3,58.3,11.4l-11.5,4.9-7.6,5.3c-4.3-3.1-8.3-6.7-11.9-.3-3,5.3-4.5,14-3.8,20.1.2,1.8,1.3,4,1.4,5.6.4,6.7-2.2,15.8-.6,23l1.8,13.1-7.7.4c-1.4-5.6-4.9-11.5-10-14.5-7.5-4.3-16.3-.8-23.7,2.1-2.7,1.1-4.6,1.8-7.4,2.8-.6.2-2.8,2-3.1,1.7-1.2-11.8-6.6-24.3-15-32.8-1.1-1.1-4.6-3.5-5.2-4.3-1.2-1.8-1.8-5.9-3.3-8.3-1.3-2.2-3.6-4.5-6.3-4.6-1.1,0-5.2.2-6.2.5-2.2.5-3,1.8-3.6,3.8-.7.5-5.1-.7-6.3-.8-1.9-.2-4.9-.2-6.5-.6-1-.3-3.2-2.6-5-3.4-2.4-1.1-5.7-1.8-8.3-1.7-.1-.5.3-.4.7-.5,5.7-2.4,11.8-4.3,17.6-6.7,13.6-5.6,28.4-12,40-21,1.8-1.4,7.2-5.7,8.3-7.3,1.7-2.4,0-5.7-2.9-5.3-1.9.2-6.5,4.9-8.3,6.3-15.3,11.4-37.5,19.9-55.4,26.5-6.8,2.5-15.8,4.7-22.1,7.6-1.5.7-1.6,1.5-2.9,2.4-1.6-2.8-2.7-2.9-5.8-2.5-5.6.7-14.4,3.9-19.9,5.9-16,5.8-52.3,21.5-61.3,35.7-6.5,10.4.3,16.1,10.7,17.1,6.5.6,13.6-.3,20.1-1v5c-1.6-1.2-2.9-1.9-4.9-1.5-3.1.7-7.2,10.6-9.9,12.9-1,0-2.2-7.4-2.7-8.5-2.2-5.9-8.9-3.4-7.7,2.6.3,1.4,1.3,1.5,1.8,2.5,1,2,.9,5,2.1,7-8.2,3-15.7,8.2-21.6,14.6.6-27.2,7.1-55.2,20.5-79,10.7-19,27.7-39.3,46.1-51.1.9-.6,5-3.3,5.6-3.4.9-.1,1.8,2.3,4.4,1.3.6-.2,4.2-4.4,4.4-5.1.7-1.8.7-4.3-1-5.6-1.6-1.2-3.1,0-4.4-.6-.3-.1-2.9-3.2-3.3-3.8-1.5-1.9-10.3-15.6-9.4-16.9,3.7,2.1,7.1,5,10.1,7.9,2.1,2.1,5.6,7.2,8.5,7.3,2.9,0,4.4-2.2,4.1-4.9-.3-2.3-3.9-8.4-4.9-11.4-1.3-3.9-2.9-10.3-1-14.1.2-.4.4-.9,1-.8,2,.2,6.5,5.6,7.9,7.3,4.7,6.1,10.1,17.6,15,22.4,3.6,3.5,7.7-.6,5.5-4.7-6.5-8.4-11.3-19.6-18.9-27.1-14.1-14.1-22.1,2.2-17.7,15.8-3.9-3.6-15.3-10.5-17.7-2-1.5,5.7,5.3,16.4,8.6,21.1l5.8,7.5c-18.5,8.9-33.5,25-45.4,41.4-21.9,30.2-29.8,62.6-31.8,99.5-.2,3.6.2,7.8-.1,11.3-.2,1.7-2.1,5.5-2.8,7.6-2,6.5-2.9,13.1-2.5,19.8-2.1,3-11.6,6.1-8.1,11.1,2.5,3.6,7.2-1.3,9.7-2.4,1.2,5.4,3.4,10.8,7.4,14.7-1.8,4.6-9.8,14.9.5,14.4-7.6,28.9-7.3,60,2.7,88.3,2.3,6.5,9.7,26.3,19.5,19.9,6.1-4,9-18.6,11.3-25.4.2-.7.4-1.8,1.1-2.2.8,10.4,2.5,21,5,31.2,1.8,7.2,6.2,24.2,12.4,28.3,6.4,4.2,10.9-4.8,12.3-9.7l5.4-19.5c4.3,19.7,10.3,40.3,21.4,57.2,4.1,6.2,14.7,20.9,22.8,11.9,6.1-6.8,7.5-31.9,8.4-41.4,0-.6-.2-.6.7-.6,3.1,16.4,7.2,34.6,17.9,47.7,5.2,6.4,15.1,15.3,23.7,9.3,2.9-2,9.2-12.2,4.3-14-6.2-2.3-5.1,10.5-12.4,8.2-10.1-3.2-18.1-21.2-21.1-30.6-6.4-20.3-8.2-41.7-11.5-62.6l.8-4.8c11.2,5.9,23,10.4,35.8,11.8l5.4,33.5c-.1,1.2-3.4.3-4.3.4-2.3,0-5.8-.2-7.3,1.8-2.2,3,.5,7.7,4,6.3.6-.2.9-1,1.3-1.1,1.2-.6,5.4.2,7,0,1.1.6,1.8,9.3,2.3,11-2.9.7-9.3-2.6-10.3,1.6-1.2,4.6,5.2,4.9,8.1,5.2,18.3,1.9,40.9-.8,59.4-2.4,30.7-2.7,58.1-5.7,86.2-19.7,1.8-.9,5.7-3.8,7.3-4.2,1-.3,2.1.4,3.6-.1,1.9-.7,1.9-3.1,3.1-4.2,1.8-1.8,5.4-3.4,7.3-5.3,4.9,8.7,11.4,17.9,19.4,24.1,7.6,5.8,13.7,6.4,19.9-1.6,6.8-8.8,7.8-22,8.1-32.7l3.4,6.4c2.9,4.4,7.8,9.5,13.3,5.8,6.2-4.1,8.9-22.6,9.4-29.8.7-10.3-.3-20.5-1.6-30.8l5.7,10.7c10.9,17.5,24.9,20,30.2-3,2.9-12.6,2.5-26.6,2.3-39.5-.2-16.9-.9-33.8-3-50.7-1.3-10.4-3.5-20.7-5.2-31l3.2-.3c-1.1-1.7-5.8-4.5-3.9-6.9.5-.6,3.9-2.7,4.9-3.6,1-.9,1.7-2,2.7-3,2,2.2,8.6,6.2,10.5,2,1.8-4-4.5-6.5-6.1-9.2,1.1-3.3,1.4-6.5,1.6-10l-1.4-7.8c3.4,0,9.3.8,8.6-4.5ZM557.6,554.9c8.2-12.9,23.1-21.8,36.5-28.3l.6,23.5-40.6,13.6c0-3.2,1.8-6.2,3.5-8.8ZM570.1,579.2c-6-1.3-11-3.5-14.9-8.4l40.2-13.3,2,23.6c-9.1.4-18.3,0-27.3-1.9ZM601.8,544c-.6-5.1-1.1-13.3-1-18.3,0-.8,0-2.3.6-2.8,10.5-5.1,21.3-9.9,32.4-13.5l-.6,28.5-30.9,9.9c.1-1.3-.4-2.4-.6-3.7ZM605.1,580.6l-.9-4.5-1.3-20.6,30.4-9.7,1.6,31c-9.8,2.1-19.8,3.4-29.8,3.9ZM674.8,497.2l-.3,27.1-33.7,11.1-.5-28.6c11.2-3.9,22.8-7,34.4-9.6ZM670.9,566.3c-.7-.2-1-3.8-3.5-4.3-4-.8-5.7,3.4-4.4,6.6l-.3.4-20.5,5.9c-.8-6.3-1.2-12.8-1.4-19.2,0-.8.3-1.6.3-2.5,0-1.7-.9-9.3-.1-10l33.5-11,.5,32.5-4.1,1.6ZM475.8,437.5c-.7,0-.6-.7-.8-1.2-.4-1.7-1.2-5.8-1.1-7.4,0-1.2.9-3.7,1.9-4.5-.4,4.3-.3,8.7,0,13.1ZM712.2,547.5c-9.6,5.3-19.5,10.4-29.8,14.3l-.2-32,30.1-10.2v27.9ZM712.2,511.7l-30.1,10.3-.2-26.2,31.9-7-1.6,22.8ZM755.6,512.2c-9.4,12.8-23,22.9-36.4,31.1l.8-26.5,40.8-13.9c-.9,3.4-3.1,6.5-5.2,9.3ZM761.5,497.2c-1.4-1.1-2.6-1.1-4.4-.7l-37,12.5.7-21,.5-.6c1.9.1,3.8-.6,5.5-.7,1.6-.1,3.4.3,4.6.1s2.2-1.2,3.8-1.3c5.2-.2,12.6,1,17.4,3.1,3.6,1.5,8.1,4.5,8.8,8.6ZM825.6,357.5l.4-2.9c1.1,3.1,2.3,6.2,3.1,9.4.4,1.5,2.3,8.1,1.4,8.9-.3.3-1.1.3-1.5.7-1.8,1.3-2.9,5.1-3.7,7.2-.7.5-2.1-7-5.5-7.5-5.7-.7-6.1,7-6.6,10.9l-2-6.6c-1.7-3.4-7.1-3.1-7.5,1.1-2-.6-3.4-1.7-5.3,0l-.7-9.9c4-.9,8.4-1,12.6-1.8,5.9-1.1,13.7-3,15.4-9.6ZM814.8,350.8c4.6,4.1,5.1,6-1.3,7.9-2,.6-16,3-16.8,2.4-1.1-7.5-3.3-14.7-5.4-21.9,8.5,1.8,17,5.9,23.6,11.6ZM756.7,336.4c3.4,0,10.2,1.3,13.1.1.8-.3,1.6-1.4,1.9-1.5.7-.1,9.1,1.3,10.1,1.7.4.2.9.1,1.1.6,2.3,7.9,5,15.8,6.3,24l-.6.9-20.4.8c-18.6-.9-37.5.6-56.1-.2-4-.2-9-.5-12.9-1.3-10.6-2.4-5.3-7.1.7-10.9,15.7-10,38.2-14.1,56.6-14.1ZM669.5,372.6l.2-.4c8-2.6,8.2-13.7,8.8-20.8,8.7-10.5,23.7-13.4,36.5-16l-7.3,2.9c-7.9,3.7-25.4,11.6-21,22.9,3.8,9.7,26.6,9,35.3,9.1,18.6.2,38.6.4,57.1-.2,3.7-.1,7.4-.3,11.1-1,1.7,15.2,2,30.4,1,45.6-.9,13.2-2.7,44.6-12.1,53.8-10.4,10.2-35.4,9.2-48.9,8.2-9.1-.7-27.7-2.2-35.2-6.6-7.6-4.4-11.2-15.6-13.7-23.5-4.1-12.8-7-26.8-9.2-40.1-1.9-11.3-3.5-22.8-2.3-34.2ZM665.3,411.6l2.4,13.4c-.3,1-4.9,1.7-6,2.3l-3.4-14.3,7-1.4ZM651,414.4l3.2,14.3c-.8,0-1.7.3-2.3.8-.9.6-1,1.4-1.4,1.7-.6.5-1.7.4-2.6,1-1.8,1.3-2,3.6-.2,5.1,2.4,2,5.7-.2,8.4-.4l1.6,5.8c-4.3,3.7-10.1,6.5-15.6,8.1-3.8,1.1-12.1,3.1-15.5,1.1-2.1-1.2-3.9-4.5-5-6.7-2.9-5.9-3.6-13.7-4.2-20.3-.1-1.3-.1-2.7-.2-4l33.9-6.4ZM624.9,398.5c4.2-1.8,12.3-4.5,16.6-2.8,3.6,1.4,6.5,6.4,7.2,10l-32.5,7.7c-.4-.1-.5-.4-.6-.8-.6-2.4-.6-5.2-1.4-7.7.2-1.6,8.9-5.7,10.7-6.4ZM581.2,361.6c.8.5,2.9,1,3.5,1.7.9,1,.1,4.8,0,6.3-1-.7-3.8-7.4-3.4-7.9ZM559.8,360.7c.3-.8,1-3.8,1.6-4l11.7,2.2c.8,2.3-.2,5.7,1,7.8.4.8,1.3,1.1,1.7,1.8.7,1,1.1,2.6,1.7,3.7,5.7,9.7,12.8,8.2,14.6-2.7,5.1,5.3,9.6,13.4,11.5,20.6.9,3.6,0,4.1.1,6.5.1,1.5,1.6,3.4,2,4.9,1,4.6-1.7,9.6-.6,14.4-5.4,1.7-5,7.5,1,7.3.8,3.8,2,7.5,3.1,11.2,2.7,9.2,3.9,16.3,4.5,25.9,1.6,23.2-2.2,36.3-25.4,43.9-16.7,5.4-42,9-59.5,9.2-24.3.2-32.8-7.9-41-29.7-5.1-13.5-8.5-27.7-11.6-41.7.6.3.7,1.1,1.3,1.7,1.8,1.9,5.6,1.9,6.1-.9.3-2-.9-4.2-1-6.2-.3-7.8,1.6-18.4.4-25.8-.7-4.5-4.7-6.2-8.1-2.9l-2.8,4.7c-.4-4.2-.2-8.5.5-12.7,19.3-4.6,38.7-10.9,57-18.6,9.9-4.2,25.2-10.4,30-20.6ZM522.9,357c10-1.6,20.4-.6,30.5-.9-1.3,5.8-8,9.6-13,12.3-8,4.2-17.2,7.8-25.7,11-13.2,5-26.7,9.5-40.5,12.7,1.8-13.8,13.8-22.4,25.6-27.8,7.2-3.3,15.3-6.1,23.2-7.3ZM461,394.5c-4.9.5-14,1.1-18.7,0-3.7-1-3.9-1.9-2-5.1,5.2-8.5,22.7-17.3,31.7-21.7,8.9-4.3,18-8.2,27.2-11.5l-9.6,4.9c-11.5,6.7-19.1,14.6-22.6,27.6-.3,1.1-.6,4.7-1.4,5.1-.3.2-4,.7-4.7.8ZM533.4,644c.7,2.9.5,4,.2,7.1-.6,8.4-2.2,28.3-5.4,35.4-1.5,3.3-2.5,2.7-5,.5-16.8-14.5-27-55.8-29.8-77.2-.4-2.6.2-8.1-3.5-8.7-4.4-.8-4.8,2.6-5.6,5.9-1,4-8.3,39.3-10.6,39.4-5.1-8.4-7.7-19-9.8-28.7-3-14.4-5.2-31.2-4.2-45.9.2-2.6,1.4-7.5,1.2-9.6-.1-1.6-1.6-3.4-3.2-3.6-4.8-.4-4.4,5-5.3,8.3-3.5,12.9-7.7,33.8-13.5,45.2-2,3.9-2.2,4.1-4.8.3-2.9-4.2-5.4-11.1-7-16-7.4-23.1-8.1-45.7-4.3-69.5.8-5.3,3.5-13.8,3.7-18.5,0-1.2-.5-2.2-1.1-3.1,3.6,1.3,7.5,2.4,11.4,1.9l-.4,12c2,0,4.1-.3,6.1-.3.2,0,.6.3,1.1.3,3.9,0,4.5-5.6.5-6.7l.5-8.3c5-3.7,9.4-8,13.4-12.7l.6.7.7-1.1c4.2,17.1,8.9,35,18.1,50.1,1.3,2.1,2.7,4.2,4.1,6.2,14,20.9,30.7,39.3,52.6,52v.5c-2.7,2.4-.5,4,0,6,.2,1.1.4,4-.1,4.9-.3.5-1.1.8-1.3,1.2-.3.7,1.3.6,1.6,1.1.2.4.2.8.3,1.2.3,6.4-.8,14.3-1,20.9,0,1.9-.5,7.5-.2,8.8ZM586.3,617.8c6.4,0,13.5,1.4,19.9.3,1.9-.3,3.6-1.5,5.6-1.7,9.2-.9,18.5,1,28.2-.4,9.5-1.4,20.5-3.8,30-5.9,21.3-4.6,42.3-12.4,61.9-21.9.6,3.8.6,7.6,1,11.4,0,.8.4,1.6.5,2.4.2,2.7,1.1,11.5.6,13.6-.5,1.9-5.6,4.4-7.4,5.4-32.2,17.3-77.7,25-113.9,28.2l-20.5,1-5.7-32.5ZM722.8,648.9c-29.2,13.2-62.2,15.9-93.8,18.1-11.3.8-22.7,1.3-34,1.4l-1.6-10.9,17.8-.9c25.4-2.9,50.3-5.6,74.9-12.7,16.7-4.8,33.2-10.6,48.4-18.9l1.1,16.9c-4,2.8-8.4,5-12.8,6.9ZM742.5,637l-.9-17.4c0,0,.3-1.4.6-1.3l6,14c0,1-4.6,4.3-5.7,4.7ZM855.3,555.3c0,10.1-.3,30.7-5.1,39.3-2.9,5.1-5.7,2.9-9-.4-11.9-11.9-16-35.8-22.6-51-1.3-2.1-4.2-2.6-6-.8-1.5,1.6-1.2,4.1-1.1,6.1,2.3,27,13.4,56.5,2.7,83.2-.5,1.3-1.1,3.6-2.6,2.8-6.4-3.8-14.2-36.8-17.5-44.7-2.3-4.2-7.4-2.3-7.1,2.3.2,3.3,2.1,8.7,2.7,12.3,2.5,14.3,4.5,35.5-1.8,49-1.1,2.4-3.9,7.3-7,7-2.9-.3-8.9-6.2-10.9-8.4-9-9.6-16.5-23.9-21.1-36.2-1.3-3.3-6.7-21.8-8-22.8-.6-.5-1.6-.5-1.9-1.2-1.1-2.4-.2-4.9-.1-7.3,16.5-9.2,30-22.7,41.6-37.4,12.3-15.6,22.3-37.6,28.5-56.5,3.9-12,5.9-23.7,5.9-36.4,2.4.1,2.7,3.3,3.5,4.3.7.8,4.4,1.9,4.8,2.7.9,3.7-.9,13.9,5.9,12,3.1-.9,2.2-6.8,2.9-9.3,3.8,1.1,7.7,1.1,11.6.5,1,3.2.9,6.3,4.3,8.1.7,5.9,1.9,11.6,2.8,17.5,3.1,21.6,4.5,43.7,4.5,65.5Z"/>
        <path class="st5" d="M845.3,428.7c-1.6-7.2-6.9-26.4-17.6-20.9-3,1.6-10.5,11-4.9,12.4,4.5,1.1,4.8-4.7,8-6.3,1.7-.3,3.3,3.7,3.9,5,.3.7,2,5.4,1.8,5.6-12.9-5-16.2,11.9-6.9,18.4,4.3,3,9.4,2.7,13.5-.6,5-4,3.5-8.3,2.3-13.7ZM831.9,431.2c1.5-.9,7.4,3.9,7.3,4.7-3.7,4.1-8.6,0-7.3-4.7Z"/>
        <path class="st5" d="M535.1,566.7c.4.6,2,.5,2.1,3,.3,5.7-7.5,8.6-9,2.2-.9-4.2-1-16.4-.3-20.7.3-2.1,1-4.3,3.4-4.7,2.7-.5,5.2,2.5,4.6,5.2s-.9,1-1.2,1.6c-.4.9,0,12.9.4,13.5Z"/>
        <path class="st5" d="M579.9,420c-14.4-12-33.2-15.7-50.4-7.2-7.9,3.9-19.3,12.3-24.8,19.3-3.7,4.7,1,8.8,5.2,5.4,1.2-1,2.3-2.8,3.5-3.9,5.3-5.1,11.3-10,18-13.1,0,3.9-.7,8.2,1.7,11.6l-15.6,3.5c-.6.2-2,.9-2.3,1.4-.3.5-.4.9-.4,1.5-.1,3.5,1.7,4.5,5,4.2,5.6-.5,12.2-2.9,17.8-4.1,9.3-1.9,18.8-3.7,28.2-4.8,5.1-.6,15.4.2,18.9-3.5,3.1-3.2-2.2-8.2-4.8-10.3ZM542.5,430.1c1.4-4.5,1.9-9.5,1.7-14.2,12-1.2,23.3,2.3,32.3,10.3-11.4.4-22.8,1.7-34,3.9Z"/>
        <path class="st5" d="M568.9,444.7c3.6-.9,6.1,2.8,3.2,5.6-3.5,3.3-10.4,7.3-14.6,10.4-2.6,1.9-10.8,9-13.2,9.6-4.3,1.1-6.1-2.1-4.1-5.7,9.3-7,18.8-13.7,28.7-19.8Z"/>
        <path class="st5" d="M759.2,393c-5.3-2.2-12.5-3.1-18.2-2.3-13.8,1.9-28.2,13.1-37,23.4-.8.9-3.3,4-3.5,4.9-.6,2.3.4,3.2,2.1,4.5,2.6,1.9,4.2,1.5,7.3,1.2,12.1-1,26-3.5,38.1-5.6,4.5-.8,20.5-3.2,23.2-5.3.3-.2.4-.9.7-1,1.2-.8,3.9-.2,4.1-3,.5-6.3-11.6-14.6-16.8-16.8ZM711.1,417.6c6.3-7.5,14.7-14.3,24.1-17.5-1.4,4.2-1.1,9.5,1.1,13.3l-25.2,4.2ZM748.5,411.4c.8-4.5.7-9.2-1.4-13.3,7.9-.3,16,3.9,21,9.8l-19.6,3.5Z"/>
        <path class="st5" d="M710.2,429c2.7-.6,11.9,1.7,15.1,2.4,6,1.3,15.1,3,20.7,5.3,5,2.1,3.7,7.8-1.5,7.2-6.8-2-13.6-3.9-20.4-5.6-4.2-1.1-10.6-1.8-14.3-3.1s-2.9-5.5.4-6.2Z"/>
      </g>
      <path class="st1" d="M405.2,458.7l-119.6-35.5c-.8-.2-1.7.1-2,.9l-106.4,213.4c-.9,1.7-3.5.9-3.2-1l32.2-235.3c.1-.8-.4-1.6-1.2-1.9l-119.6-35.4c-1.6-.5-1.7-2.7,0-3.3l117.7-41.6c.8-.3,1.2-1,1.1-1.8l-22.8-189.5c-.2-1.8,2.2-2.7,3.2-1.1l95.4,163.3c.5.9,1.6,1.1,2.4.6l178.9-119.7c1.6-1.1,3.5.9,2.3,2.4l-132.5,181.7c-.4.6-.4,1.5,0,2.1l76,99.1c1,1.3-.3,3.2-1.8,2.7Z"/>
      <path class="st6" d="M1456,84.3h-241.8c-96.5,93.2-6.9,215.9,47.1,250.3-3.8.6-7.7,1.3-11.5,2.2-48.3,10.5-88.8,36.4-116.7,70.7-1.7,2.1-3.4,4.2-5,6.4-30,40.2-43.1,90.7-32.2,141.2,2.8,13.1,7.2,25.6,12.8,37.2,7.3,15.2,16.8,29.1,28.1,41.3,3.4,3.7,7,7.3,10.8,10.8,13.8,12.7,29.6,23.2,46.9,31.4,38.9,18.3,85.1,24.4,131.8,14.2,56.3-12.2,102.1-45.4,129.6-88.5,0,0,3-488.8,0-517.2ZM1284,297c0-.4,0-.7-.1-1v1ZM1283.7,294.7h0s0,0,0,0h0Z"/>
      <path class="st6" d="M1289.5,340.5c0-.8-.2-1.7-.3-2.8l.3,2.8Z"/>
      <path class="st6" d="M1288.6,333.8c.2,1.5.4,2.8.5,4l-.5-4Z"/>
      <path class="st6" d="M1289.6,341.9v-.9c0,.3,0,.6,0,.9Z"/>
      <path class="st1" d="M1289.7,679l-85.7-25.4c-.5-.2-1.1.1-1.3.6l-53.7,142.4c-.4,1.1-2,.8-2-.4l.6-158.6c0-.5-.3-.9-.7-1l-85.8-25.4c-1-.3-1-1.7,0-2l84.4-29.9c.5-.2.7-.6.7-1.1l-19.7-181.2c-.1-1.2,1.5-1.6,2-.5l71.9,162.2c.2.6.9.8,1.4.5l136.2-71.1c1-.5,2,.8,1.3,1.6l-102.7,115.2c-.3.4-.4.9,0,1.3l54.4,71c.6.8-.2,1.9-1.1,1.6Z"/>
    </g>
    <text class="st4" transform="translate(26 573.6)"><tspan x="0" y="0">sotti</tspan></text>
    <text class="st4" transform="translate(856.8 574.2)"><tspan x="0" y="0">grafics</tspan></text>
    <text class="st3" transform="translate(41.8 404.5)"><tspan x="0" y="0">ciao! questo è</tspan></text>
    <text class="st3" transform="translate(1259.7 618.3)"><tspan x="0" y="0">benvenuto!</tspan></text>
    <path class="st1" d="M847.5,318.4c3.3-27.6,6-55.4,7.8-83.2.5-7.8,1-15.7,1.4-23.5.1-2.6-2.4-5.1-5-5s-4.9,2.2-5,5c-1.4,27.8-3.6,55.6-6.6,83.3s-1.7,15.6-2.7,23.4,2.5,5.1,5,5,4.7-2.2,5-5h0Z"/>
    <path class="st1" d="M865.7,331.7c21.7-16.7,44.3-32.3,67.7-46.6,6.5-4,13.1-7.9,19.8-11.7,2.3-1.3,3.2-4.6,1.8-6.8-1.5-2.3-4.4-3.2-6.8-1.8-23.8,13.6-46.8,28.5-69,44.6-6.2,4.5-12.4,9.1-18.4,13.8-1.1.8-1.9,1.6-2.3,3-.3,1.2-.2,2.8.5,3.9,1.3,2,4.6,3.5,6.8,1.8h0Z"/>
    <path class="st1" d="M870.3,368.5c18.4,1,36.8,2.4,55.1,4.2,5.2.5,10.4,1.1,15.5,1.6s5.1-2.5,5-5c-.1-3-2.2-4.7-5-5-18.3-2-36.7-3.7-55.1-4.9s-10.4-.7-15.6-.9-5.1,2.4-5,5,2.2,4.8,5,5h0Z"/>
    <g>
      <path class="st0" d="M835.6,317.1c3.8-31,6.5-62.2,8.1-93.4"/>
      <path class="st2" d="M839.4,317.1c2.9-24.1,5.2-48.4,6.8-72.6.5-6.9.9-13.9,1.2-20.8.1-2-1.8-3.8-3.8-3.8s-3.6,1.6-3.8,3.8c-1.3,24.3-3.2,48.5-5.7,72.7-.7,6.9-1.5,13.8-2.3,20.7-.2,2,1.9,3.8,3.8,3.8s3.5-1.7,3.8-3.8h0Z"/>
    </g>
    <g>
      <path class="st0" d="M853.7,324.9c24.3-18.8,49.9-35.9,76.6-51.1"/>
      <path class="st2" d="M855.6,328.2c19-14.6,38.7-28.3,59.2-40.8s11.5-7,17.4-10.3c1.8-1,2.4-3.4,1.3-5.1-1-1.8-3.4-2.4-5.1-1.3-20.8,11.9-41,24.9-60.4,39-5.5,4-10.8,8-16.2,12.1-1.6,1.2-2.5,3.2-1.3,5.1.9,1.6,3.5,2.6,5.1,1.3h0Z"/>
    </g>
    <g>
      <path class="st0" d="M859.9,356.5c20.7,1.1,41.3,2.8,61.9,5.1"/>
      <path class="st2" d="M859.9,360.3c20.7,1.1,41.3,2.8,61.9,5.1,2,.2,3.8-1.9,3.8-3.8s-1.7-3.5-3.8-3.8c-20.6-2.3-41.2-4-61.9-5.1-2-.1-3.8,1.8-3.8,3.8,0,2.1,1.6,3.6,3.8,3.8h0Z"/>
    </g>
  </g>
</svg>