<?xml version="1.0" encoding="UTF-8"?>
<svg id="Livello_2" data-name="Livello 2" xmlns="http://www.w3.org/2000/svg" viewBox="0 0 550 550">
  <defs>
    <style>
      .cls-1 {
        fill: #fff;
      }
    </style>
  </defs>
  <g id="Livello_1-2" data-name="Livello 1">
    <path class="cls-1" d="M161.72,0C72.95,0,0,72.85,0,161.72v226.56c0,88.77,72.85,161.72,161.72,161.72h226.56c88.77,0,161.72-72.85,161.72-161.72v-226.56C550,72.95,477.15,0,388.28,0h-226.56ZM161.72,50h226.56c61.82,0,111.72,49.9,111.72,111.72v226.56c0,61.82-49.9,111.72-111.72,111.72h-226.56c-61.82,0-111.72-49.9-111.72-111.72v-226.56c0-61.82,49.9-111.72,111.72-111.72ZM422.66,104.69c-12.6,0-22.66,10.06-22.66,22.66s10.06,22.66,22.66,22.66,22.66-10.06,22.66-22.66-10.06-22.66-22.66-22.66ZM275,125c-82.52,0-150,67.48-150,150s67.48,150,150,150,150-67.48,150-150-67.48-150-150-150ZM275,175c55.57,0,100,44.43,100,100s-44.43,100-100,100-100-44.43-100-100,44.43-100,100-100Z"/>
  </g>
</svg>