<?xml version="1.0" encoding="UTF-8"?>
<svg xmlns="http://www.w3.org/2000/svg" viewBox="0 0 1440 702">
  <defs>
    <style>
      .cls-1 {
        fill: #99a85f;
      }

      .cls-2 {
        fill: #c7cca5;
      }

      .cls-3, .cls-4, .cls-5 {
        fill: #1d1d1b;
      }

      .cls-6 {
        letter-spacing: 0em;
      }

      .cls-7 {
        letter-spacing: 0em;
      }

      .cls-8 {
        stroke: #1d1d1b;
        stroke-miterlimit: 10;
        stroke-width: 2px;
      }

      .cls-4 {
        font-size: 40px;
      }

      .cls-4, .cls-5 {
        font-family: BebasNeue-Regular, 'Bebas Neue';
      }

      .cls-5 {
        font-size: 225px;
      }

      .cls-9 {
        letter-spacing: 0em;
      }

      .cls-10 {
        letter-spacing: 0em;
      }

      .cls-11 {
        letter-spacing: 0em;
      }

      .cls-12 {
        fill: #acb67a;
      }

      .cls-13 {
        fill: #829840;
      }

      .cls-14 {
        letter-spacing: 0em;
      }
    </style>
  </defs>
  <g id="Livello_2" data-name="Livello 2">
    <rect class="cls-13" x="-13.06" y="-8.45" width="1469.11" height="723.06"/>
  </g>
  <g id="Livello_1" data-name="Livello 1">
    <g id="Livello_3" data-name="Livello 3">
      <path class="cls-12" d="M-55.17-45.23S109.35-8.9,113.34,118.85c3.99,127.75,110.26,330.9,110.26,330.9,0,0,259.97-69.8,175.2,252.25H0L-55.17-45.23Z"/>
      <ellipse class="cls-12" cx="136.72" cy="291.13" rx="196.64" ry="180.73" transform="translate(-103.59 77.35) rotate(-23.19)"/>
      <ellipse class="cls-12" cx="1288.16" cy="361.93" rx="196.64" ry="180.73" transform="translate(-47.43 280.95) rotate(-12.22)"/>
      <g>
        <path class="cls-8" d="M663.82,252.35l-1.77-13.13c-1.65-7.21.96-16.28.56-23-.09-1.52-1.17-3.76-1.36-5.56-.65-6.02.86-14.73,3.82-20.06,3.52-6.35,7.58-2.8,11.85.29l7.58-5.27,11.5-4.89c-19.64-.1-41.7.8-58.26-11.4-2.3-1.7-11.01-9.63-11.68-11.98-1.54-5.38,4.68-6.5,7.19-2.79,2.07,3.05,2.33,4.03,5.44,6.62,16.24,13.45,40.33,12.35,60.25,11.98,13.16-.24,26.3-.5,39.39-2.45,2.58.17,2.98,2.6,3.37,2.67,12.59-.59,25.13.56,37.67,1.24,1.99,1.88,3.91,1.07,5.9,2.01,1.22.57,2.1,2.07,3.09,2.53,2.25,1.05,7.01,1.73,9.72,2.6,9.24,2.98,17.51,8.19,24.51,14.85.27.04.2-.34.14-.53-1.18-3.86-8.08-13.2-10.82-16.67-40.64-51.48-108.3-73.23-172.53-65.25-2.64.33-8.59,2.76-9.69-1.16-1.35-4.79,5.64-5.72,8.95-6.22,21.86-3.3,51.09-1.14,72.8,3.22,42.45,8.53,90.09,37.78,113.35,74.82,8.22,13.09,12,26.51,14.05,41.82,0,3.59-2.15,2.59-4.19,3.29-.14.05-2.31,1.66-2.46,1.81-1.77,1.85-1.65,5.5-4.84,7.05-3.45,1.67-5.45-.06-7.78-2.48-.64,5.64-3.22,14.76-10.44,9.38-.5,4.08-3.75,7.89-7.86,4.83l-2.32-3.94c-.19,12.92-1.15,25.91-2.59,38.75-1.59,14.16-4.24,33.61-17.87,41.09,1.01,1.39.64,2.73,1.09,4.19.49,1.59,2.56,4.69,3.37,6.69,1.18,2.89,1.88,5.79,2.91,8.69.83,2.34,2.04,2.72,1.71,5.88-.36,3.54-5.01,4.45-6.88,1.36-1.58-2.62-2.63-9.16-3.83-12.52-.68-1.91-1.52-3.75-2.34-5.6-.88-1.99-2.58-3.49-2.24-5.9l-12.18,3.12c5.52,4.44,9.39,8.66,8.94,16.26-.63,10.75-14.29,25.17-22.08,32.09-12.63,11.21-27.69,20.21-42.72,27.77.14,2.84.45,4.04-2.04,5.71-4.31,2.89-14.43,6.63-19.64,8.81-2.89,1.21-5.88,2.18-8.8,3.32.37,2.55,1.85,7.83-1.58,8.8-4.11,1.17-5.85-2.55-6.42-5.94-5.82,2.01-13.77,4.95-19.98,4.16-2.04-.26-2.95-2.24-4.06-2.2-5.55,1.27-11.14,2.54-16.78,3.38-17.84,2.66-52.11,5.7-67.86-3.88-21.96-13.36-5.56-35.33,8.6-46.79,15.94-12.9,36.82-21.29,55.55-29.3-3.29-4.89,4.89-8.56,8.38-10.39,11.25-5.89,23.65-9.28,35.7-13.13,1.95-.78,3.43,1.06,4.98,1.17,2.07.14,5.21-.88,7.74-.8,3.03.1,5.83,1.11,5.7,4.66,7.09-1.79,14.65-2.66,21.7-4.44,1.05-.27,2.6-.38,3.03-1.46-5.41-.41-11.54-1.83-16.34-4.37-14.85-7.89-18.2-29.4-22.56-44.06l-6.25,1.75c.01,3.31,4.01,9.47,2.73,12.35-1.08,2.43-2.78,1.41-4.53,1.96-1.33.42-6.03,3.91-7.99,4.88-7.3,3.61-16.14,6.16-24.34,5.95-3.27-.09-5.79-1.33-8.44-3.1.09,2.56.65,4.99.77,7.57.53,12.03-1.35,26.23-10.14,35.13-14.99,15.18-51.6,18.6-72.14,20.23-32.12,2.55-46.5-2.76-58.13-33.71-4.69-12.49-7.86-25.57-11.16-38.48-2.48.45-4.39-1.87-4.39-4.2,0-.89,1-2.3.37-3.07-6.54-.25-7.08-6.38-7.68-11.59-8.04-3.23-15.01-.13-21.72,4.28-4.71,3.1-13.13,10.91-14.5,16.48-.5,2.04,1.56,4.76-1.13,6.67-.56.39-1.28.38-1.76.77-1.17.94-3.3,12.54-2.63,13.23,1.42-.41,2.01-1.27,3.64-1.29,1.43-.02,1.79.83,3.04.93-1.36-9.53,9.16-24.03,18.29-25.96,3.35-.71,10.39-.58,10.2,4.14-.16,3.99-3.94,2.36-6.06,2.26-7.38-.34-15.88,12.22-15.36,18.97.36,4.69,4.2.32,5.89-1.33,2.99-2.92,7.9-9.94,12.33-10.03,8.03-.16,5.87,11.88,4.85,16.78-.59,2.86-.99,6.47-4.67,6.56-5.95.14-1.78-10.37-1.61-13.71l-3.38,2.82c-4.38,5.42-11.79,12.9-18.38,5.92l-1.91-2.9c-.14,2.4-6.25,4.95-6.37,6.53-.11,1.39,3.04,10.74,4.14,11.42.39.31.63-.42.74-.68.74-1.64.16-3.83,2-4.9.33-.19,4.06-1.27,4.49-1.32,2.62-.28,4.41,1.88,4.2,4.43-.15,1.76-3.79,8.95-3.65,9.45,2.41,1.44,5.42,1.45,8.17,1.18.79-4.27-2.5-13.22,4.8-12.24,1.68.22,2.95,2.37,3.2,3.91.17,1.08-.27,1.96,0,2.96,3.71-2.82,6.43-7.65,9.84-10.59,1.4-1.21,2.7-1.81,4.52-.91.74.36,1.15,1.49,1.39,1.52.95.09,1.84-1.06,3.48-.23,2.64,1.34,1.33,3.57,1.52,5.75.51,5.83,5.35,18.5,7.48,24.51,13.57,38.32,45.05,71.81,82.1,88.35,10.58,4.72,28.57,8.69,40.13,8.31,1.69-.06,2.6-1.05,4.16-1.31,9.49-1.56,21.01-.01,30.68-.22,50.57-7.13,104.27-19.91,138.79-60.14,19.04-22.19,36.03-58.97,38.65-88.27.31-3.48.54-6.23-.1-9.51-.7-3.6,2.28-3.41,2.75-4.53.65-1.52-.23-3.88,2.95-4.09,3.44-.22,3.7,3.47,5.01,5.66,1.17,1.95,2.78,2.98,4.69,4.1-.02-2.81,2.88-5.77,5.74-4.15.23.13,2.96,3.89,3.15,4.32.57,1.24.69,2.27.3,3.58,3.21.78,6.66,1.54,9.91.54-3.14-7.52,4.91-11.28,8.77-4.34.43.08,4.13-3.18,4.4-3.77.24-.53.05-.52-.23-.88-1.59-2.07-6.65-4.28-3.92-7.53,2.18-2.59,7.77.45,8.09.07.22-4.12-.22-8.22-1.69-12.12-6.56,2.11-7.15-6.14-2.21-8.36-2.81-7.75-4.78-14.14-12.51-18.14-7.81-4.04-14.9-4.84-21.71,1.45-3.29,3.04-3.82,4.97-5.78,8.54s-7.51,2.13-6.23-3.27c.48-2.02,4.9-7.94,6.48-9.59,7.87-8.26,16.43-9.38,26.95-5.37,12.94,4.94,16.72,14.46,20.75,26.87,2.89,1.29,10-.79,10.62,3.49.76,5.28-5.16,4.5-8.59,4.52l1.44,7.83c-.13,3.49-.44,6.66-1.56,9.99,1.63,2.72,7.92,5.18,6.1,9.18-1.87,4.1-8.42.2-10.47-2.04-.94.92-1.71,2.07-2.68,2.95-1.06.97-4.45,3.05-4.92,3.62-1.91,2.38,2.77,5.17,3.89,6.86l-3.16.34c1.66,10.32,3.87,20.58,5.17,30.98,2.1,16.85,2.82,33.74,3.03,50.67.16,12.9.57,26.89-2.3,39.51-5.23,22.99-19.27,20.53-30.18,3.02l-5.67-10.65c1.25,10.21,2.31,20.46,1.58,30.76-.51,7.17-3.17,25.62-9.41,29.76-5.57,3.69-10.45-1.42-13.32-5.84l-3.45-6.41c-.37,10.74-1.32,23.95-8.13,32.75-6.2,8.01-12.3,7.41-19.86,1.58-7.99-6.16-14.52-15.32-19.44-24.05-1.93,1.91-5.49,3.53-7.3,5.32-1.17,1.16-1.14,3.53-3.1,4.25-1.43.53-2.57-.11-3.55.15-1.56.42-5.44,3.25-7.29,4.17-28.03,13.95-55.41,17.01-86.16,19.68-18.5,1.6-41.08,4.32-59.42,2.41-2.91-.3-9.3-.64-8.1-5.19,1.09-4.15,7.4-.89,10.34-1.59-.55-1.68-1.26-10.44-2.34-11-1.65.22-5.86-.54-7.04.04-.4.19-.71.89-1.34,1.14-3.53,1.37-6.2-3.37-4.05-6.33,1.47-2.01,5.01-1.76,7.31-1.83.83-.02,4.14.78,4.28-.37l-5.37-33.48c-12.72-1.44-24.53-5.93-35.74-11.85l-.84,4.8c3.31,20.93,5.07,42.31,11.5,62.59,2.97,9.37,10.96,27.41,21.11,30.58,7.35,2.3,6.2-10.52,12.42-8.22,4.9,1.81-1.47,12.03-4.34,14.03-8.58,5.96-18.48-2.92-23.68-9.32-10.69-13.14-14.87-31.38-17.92-47.74-.88-.02-.61-.05-.67.57-.9,9.53-2.26,34.67-8.38,41.42-8.09,8.92-18.72-5.77-22.8-11.94-11.18-16.93-17.16-37.54-21.45-57.23l-5.39,19.45c-1.35,4.98-5.9,13.93-12.27,9.74-6.23-4.09-10.69-21.07-12.45-28.29-2.47-10.16-4.21-20.76-5-31.17-.71.36-.86,1.48-1.1,2.19-2.3,6.73-5.24,21.36-11.29,25.38-9.76,6.46-17.16-13.36-19.47-19.88-10.04-28.34-10.37-59.38-2.74-88.31-10.3.46-2.25-9.78-.45-14.41-4.04-3.85-6.26-9.27-7.45-14.66-2.46,1.14-7.22,6-9.71,2.42-3.44-4.96,6-8.04,8.13-11.05-.35-6.78.56-13.38,2.53-19.85.63-2.05,2.58-5.84,2.76-7.58.36-3.52-.06-7.67.13-11.29,1.93-36.91,9.92-69.32,31.77-99.5,11.9-16.44,26.94-32.51,45.41-41.45l-5.83-7.48c-3.31-4.69-10.19-15.46-8.64-21.14,2.33-8.56,13.75-1.6,17.64,1.97-4.37-13.61,3.62-29.85,17.69-15.78,7.53,7.53,12.34,18.68,18.86,27.11,2.13,4.09-1.94,8.16-5.54,4.68-4.99-4.82-10.31-16.29-15.04-22.42-1.32-1.71-5.85-7.11-7.86-7.3-.55-.05-.77.46-.98.84-1.99,3.79-.36,10.22.96,14.12,1,2.96,4.55,9.08,4.86,11.4.37,2.75-1.21,5-4.08,4.9s-6.38-5.29-8.5-7.34c-3.06-2.96-6.4-5.84-10.12-7.93-.9,1.27,7.91,15,9.42,16.92.44.56,3.02,3.65,3.31,3.78,1.31.56,2.84-.58,4.45.64,1.7,1.28,1.68,3.73.96,5.57-.27.68-3.84,4.83-4.44,5.06-2.67,1.02-3.57-1.44-4.43-1.32-.56.08-4.71,2.8-5.59,3.36-18.41,11.77-35.42,32.09-46.09,51.06-13.35,23.73-19.89,51.75-20.49,78.96,5.94-6.32,13.48-11.53,21.64-14.56-1.16-2.03-1.08-5.09-2.07-7.05-.48-.96-1.49-1.13-1.78-2.49-1.28-5.93,5.45-8.43,7.66-2.56.45,1.2,1.69,8.6,2.7,8.55,2.71-2.27,6.83-12.2,9.92-12.86,2-.43,3.29.34,4.82,1.49l.09-4.95c-6.5.64-13.62,1.6-20.14.97-10.33-1-17.16-6.76-10.64-17.11,8.95-14.23,45.28-29.91,61.27-35.72,5.48-1.99,14.28-5.24,19.89-5.9,3.1-.36,4.17-.3,5.77,2.5,1.22-.9,1.41-1.75,2.88-2.43,6.31-2.92,15.28-5.1,22.08-7.62,17.9-6.63,40.17-15.19,55.43-26.55,1.87-1.39,6.49-6.03,8.35-6.26,2.86-.35,4.61,2.97,2.93,5.35-1.13,1.59-6.51,5.84-8.33,7.26-11.64,9.04-26.4,15.41-39.99,21-5.76,2.37-11.86,4.29-17.55,6.67-.33.14-.81.08-.68.55,2.67-.04,5.91.64,8.34,1.72,1.72.77,3.96,3.15,4.97,3.42,1.6.42,4.62.38,6.47.62,1.22.16,5.64,1.37,6.33.82.67-1.99,1.48-3.27,3.65-3.77,1.01-.23,5.09-.52,6.17-.48,2.67.1,4.95,2.44,6.25,4.6,1.46,2.42,2.08,6.54,3.27,8.29.56.83,4.01,3.19,5.15,4.34,8.38,8.41,13.72,21,14.96,32.76.31.32,2.55-1.49,3.14-1.7,2.77-.96,4.65-1.69,7.37-2.75,7.32-2.85,16.21-6.41,23.67-2.1,5.09,2.94,8.55,8.86,9.97,14.45l7.74-.41ZM714.86,183.96c-12.79,2.52-27.75,5.45-36.47,15.96-.57,7.03-.81,18.2-8.78,20.77l-.17.36c-1.19,11.45.45,22.91,2.33,34.19,2.22,13.29,5.14,27.25,9.24,40.07,2.52,7.91,6.17,19.12,13.72,23.51s26.13,5.93,35.26,6.62c13.54,1.02,38.54,1.98,48.89-8.21,9.42-9.27,11.18-40.63,12.1-53.83,1.05-15.23.77-30.45-.96-45.63-3.64.64-7.37.84-11.07.96-18.53.59-38.5.42-57.11.19-8.7-.11-31.58.52-35.34-9.14-4.37-11.23,13.15-19.18,21.03-22.85l7.34-2.95ZM771.8,183.56c-.34.07-1.2,1.16-1.94,1.45-2.94,1.15-9.67-.12-13.12-.11-18.43.05-40.88,4.18-56.59,14.13-6.04,3.83-11.38,8.53-.74,10.91,3.91.87,8.83,1.16,12.86,1.34,18.58.84,37.46-.64,56.08.22l20.38-.79.55-.86c-1.31-8.2-3.92-16.05-6.28-23.98-.22-.5-.68-.49-1.1-.64-1.05-.36-9.41-1.82-10.09-1.68ZM796.69,209.6c.88.67,14.83-1.75,16.84-2.37,6.34-1.96,5.9-3.86,1.28-7.91-6.53-5.73-15.09-9.82-23.55-11.63,2.17,7.23,4.33,14.42,5.43,21.92ZM499.38,204.58c-9.26,3.31-18.39,7.22-27.24,11.52-9.04,4.39-26.54,13.18-31.74,21.72-1.96,3.22-1.7,4.11,1.96,5.08,4.66,1.23,13.78.65,18.69.1.75-.08,4.42-.62,4.71-.79.81-.46,1.08-3.98,1.39-5.12,3.55-13,11.12-20.95,22.61-27.6l9.62-4.91ZM553.35,204.54c-10.09.3-20.45-.66-30.46.91-7.88,1.24-15.93,4.05-23.16,7.32-11.8,5.33-23.84,13.93-25.6,27.75,13.8-3.14,27.29-7.66,40.51-12.65,8.47-3.2,17.76-6.8,25.73-11.04,5.01-2.67,11.62-6.44,12.98-12.29ZM592.16,218.02c-1.87,10.9-8.97,12.35-14.63,2.67-.65-1.11-1.03-2.68-1.71-3.69-.47-.7-1.31-1.05-1.73-1.8-1.17-2.11-.27-5.5-1.01-7.83l-11.73-2.16c-.56.2-1.23,3.2-1.58,3.96-4.81,10.21-20.04,16.46-29.95,20.65-18.3,7.72-37.62,14.06-56.96,18.63-.68,4.18-.82,8.44-.46,12.65l2.78-4.7c3.34-3.26,7.35-1.6,8.05,2.89,1.15,7.36-.77,17.98-.42,25.8.09,2.01,1.33,4.24.99,6.23-.49,2.85-4.22,2.87-6.06.93-.57-.6-.71-1.44-1.31-1.7,3.13,14.02,6.55,28.22,11.64,41.68,8.23,21.77,16.71,29.92,40.99,29.71,17.49-.16,42.8-3.79,59.46-9.2,23.23-7.54,27.01-20.65,25.4-43.89-.67-9.64-1.82-16.73-4.54-25.9-1.1-3.73-2.32-7.43-3.14-11.24-6,.16-6.48-5.56-1.03-7.29-1.15-4.78,1.53-9.76.55-14.37-.34-1.59-1.84-3.4-1.96-4.94-.19-2.41.79-2.94-.15-6.51-1.87-7.15-6.38-15.27-11.5-20.57ZM584.67,211.8c-.6-.64-2.67-1.16-3.51-1.68-.37.54,2.4,7.21,3.42,7.94.22-1.42,1.03-5.25.09-6.26ZM825.2,229.31c.78-2.11,1.9-5.87,3.73-7.21.44-.32,1.21-.38,1.51-.65.94-.86-.95-7.42-1.36-8.94-.86-3.18-2.06-6.27-3.15-9.36l-.35,2.86c-1.75,6.53-9.54,8.48-15.43,9.58-4.14.77-8.55.83-12.58,1.75l.73,9.87c1.91-1.59,3.34-.47,5.29.07.34-4.18,5.76-4.51,7.49-1.07l1.97,6.57c.53-3.9.99-11.66,6.64-10.93,3.39.44,4.87,8.01,5.52,7.46ZM648.75,254.21c-.76-3.62-3.65-8.67-7.23-10.04-4.32-1.65-12.38,1.08-16.62,2.82-1.73.71-10.46,4.88-10.68,6.44.81,2.44.83,5.22,1.38,7.65.09.39.17.69.6.81l32.55-7.69ZM665.28,260.04l-6.98,1.43,3.43,14.26c1.05-.55,5.73-1.33,5.99-2.28l-2.44-13.42ZM650.97,262.92l-33.85,6.41c.06,1.34.07,2.69.2,4.03.63,6.65,1.24,14.4,4.19,20.33,1.09,2.19,2.88,5.48,5.02,6.72,3.42,1.99,11.76.04,15.52-1.09,5.47-1.63,11.25-4.44,15.56-8.14l-1.55-5.77c-2.71.22-6,2.45-8.42.43-1.76-1.47-1.6-3.78.22-5.1.89-.65,1.96-.59,2.58-1.03.47-.34.52-1.13,1.44-1.72.64-.41,1.57-.66,2.33-.76l-3.23-14.31ZM475.83,285.99c-.3-4.35-.41-8.72.01-13.07-.95.82-1.81,3.28-1.88,4.5-.09,1.58.7,5.71,1.11,7.36.13.51.05,1.09.76,1.2ZM818.49,306.91c-.8-.98-1.09-4.17-3.5-4.3,0,12.7-2,24.42-5.92,36.42-6.17,18.91-16.15,40.93-28.48,56.52-11.61,14.69-25.14,28.24-41.59,37.41-.12,2.4-.94,4.88.11,7.28.31.7,1.37.71,1.95,1.19,1.28,1.06,6.72,19.47,7.98,22.81,4.62,12.27,12.07,26.57,21.07,36.21,2.05,2.19,8.06,8.09,10.93,8.37,3.01.29,5.84-4.6,6.95-7,6.23-13.46,4.27-34.65,1.76-48.97-.63-3.61-2.5-9.02-2.73-12.28-.33-4.63,4.82-6.46,7.12-2.31,3.29,7.88,11.07,40.85,17.51,44.65,1.51.89,2.04-1.41,2.58-2.74,10.7-26.74-.42-56.21-2.73-83.24-.17-1.99-.43-4.52,1.09-6.09,1.73-1.8,4.72-1.24,5.97.84,6.52,15.16,10.69,39.1,22.55,50.98,3.31,3.31,6.14,5.52,9.02.43,4.85-8.58,5.15-29.21,5.15-39.29,0-21.76-1.46-43.86-4.55-65.46-.83-5.82-2.06-11.61-2.74-17.46-3.41-1.75-3.31-4.84-4.3-8.08-3.87.6-7.8.61-11.61-.49-.77,2.49.16,8.38-2.94,9.26-6.78,1.93-4.97-8.24-5.85-11.98-.44-.8-4.12-1.84-4.8-2.67ZM442.58,367.21c-2.05.04-4.11.27-6.16.33l.42-12.03c-3.92.53-7.74-.56-11.39-1.86.57.96,1.11,1.97,1.07,3.14-.16,4.66-2.87,13.21-3.69,18.48-3.74,23.86-3.13,46.44,4.31,69.56,1.58,4.92,4.13,11.84,7.02,16.05,2.58,3.75,2.78,3.57,4.78-.34,5.8-11.39,10.05-32.24,13.51-45.18.9-3.37.48-8.72,5.3-8.34,1.59.13,3.06,2,3.19,3.57.17,2.09-1.05,7.02-1.22,9.63-.96,14.72,1.19,31.51,4.22,45.94,2.03,9.66,4.6,20.24,9.75,28.67,2.34-.13,9.57-35.38,10.61-39.4.84-3.25,1.25-6.63,5.61-5.87,3.71.65,3.19,6.15,3.54,8.74,2.9,21.34,13.07,62.72,29.84,77.17,2.47,2.13,3.44,2.76,4.97-.55,3.25-7.06,4.85-27.01,5.42-35.36.21-3.06.42-4.19-.25-7.08-.3-1.3.11-6.91.17-8.75.2-6.59,1.35-14.5,1.04-20.9-.02-.42-.02-.86-.27-1.22-.39-.57-1.97-.4-1.65-1.14.16-.37,1.01-.64,1.31-1.17.5-.88.34-3.83.11-4.89-.44-2.07-2.67-3.69.04-6.04l-.02-.51c-21.93-12.68-38.66-31.08-52.64-51.98-1.38-2.06-2.84-4.11-4.12-6.22-9.22-15.15-13.91-33.01-18.12-50.13l-.65,1.09-.56-.67c-3.99,4.76-8.42,9.04-13.44,12.72l-.45,8.25c3.95,1.08,3.39,6.63-.51,6.66-.48,0-.92-.33-1.08-.33ZM761.54,345.7c-.73-4.15-5.25-7.07-8.84-8.61-4.75-2.03-12.21-3.25-17.36-3.08-1.57.05-2.55,1.18-3.8,1.3s-3-.27-4.61-.15c-1.79.14-3.65.81-5.54.71l-.47.58-.72,20.98,36.99-12.46c1.73-.33,2.93-.4,4.35.74ZM713.83,337.28l-31.93,6.96.18,26.15,30.13-10.26,1.62-22.85ZM674.77,345.71c-11.63,2.59-23.16,5.69-34.41,9.6l.46,28.58,33.66-11.11.29-27.06ZM633.78,357.77c-11.14,3.67-21.89,8.46-32.43,13.55-.48.57-.55,2.07-.57,2.84-.16,5.05.39,13.26.97,18.34.14,1.22.7,2.38.56,3.66l30.9-9.9.57-28.49ZM719.19,391.73c13.39-8.18,27.05-18.33,36.43-31.08,2.05-2.79,4.23-5.9,5.16-9.27l-40.84,13.87-.75,26.48ZM712.29,368.09l-30.06,10.16.21,32.04c10.32-3.88,20.13-8.99,29.78-14.29l.08-27.9ZM594.14,375.06c-13.42,6.56-28.36,15.39-36.53,28.31-1.66,2.63-3.44,5.55-3.48,8.77l40.55-13.62-.55-23.46ZM642.21,423.36l20.51-5.86.27-.39c-1.36-3.25.35-7.47,4.37-6.65,2.55.52,2.85,4.12,3.53,4.3l4.12-1.6-.51-32.48-33.54,11.04c-.76.71.07,8.34.11,9.99.02.83-.28,1.62-.25,2.46.19,6.4.64,12.85,1.39,19.19ZM633.25,394.17l-30.36,9.72,1.27,20.62.94,4.55c9.97-.49,19.98-1.86,29.78-3.92l-1.63-30.97ZM595.43,406.07l-40.21,13.25c3.88,4.91,8.95,7.06,14.9,8.4,8.91,2,18.16,2.35,27.26,1.91l-1.96-23.56ZM591.93,498.73l20.53-1.04c36.19-3.26,81.76-10.94,113.91-28.22,1.81-.97,6.95-3.46,7.43-5.38.52-2.08-.34-10.87-.55-13.6-.06-.83-.44-1.58-.51-2.42-.33-3.82-.31-7.65-.95-11.44-19.54,9.54-40.52,17.35-61.85,21.94-9.46,2.04-20.49,4.47-29.97,5.88-9.66,1.43-19.01-.43-28.2.42-1.94.18-3.68,1.38-5.58,1.69-6.38,1.05-13.48-.37-19.91-.32l5.66,32.49ZM742.5,485.49c1.13-.41,5.77-3.71,5.74-4.71l-6.03-13.99c-.38-.12-.64,1.2-.63,1.27l.92,17.43ZM734.46,473.56c-15.25,8.27-31.77,14.11-48.44,18.93-24.59,7.1-49.56,9.8-74.91,12.7l-17.78.93,1.63,10.86c11.29-.15,22.69-.64,33.98-1.44,31.67-2.23,64.57-4.96,93.82-18.15,4.41-1.99,8.8-4.17,12.78-6.94l-1.08-16.9Z"/>
        <path class="cls-8" d="M836.42,273.1c.17-.25-1.49-4.92-1.79-5.65-.57-1.36-2.15-5.28-3.87-5.02-3.18,1.59-3.51,7.42-7.99,6.29-5.63-1.42,1.85-10.86,4.87-12.41,10.76-5.53,16.02,13.7,17.66,20.9,1.23,5.44,2.7,9.73-2.31,13.71-4.06,3.23-9.22,3.56-13.52.55-9.2-6.43-5.96-23.36,6.95-18.37ZM831.87,279.73c-1.31,4.71,3.53,8.79,7.27,4.69.14-.74-5.74-5.63-7.27-4.69Z"/>
        <path class="cls-8" d="M535.15,415.15c.42.64,2.01.47,2.13,2.96.29,5.73-7.52,8.58-8.96,2.21-.95-4.21-1.01-16.35-.32-20.69.33-2.08,1-4.26,3.39-4.68,2.72-.48,5.21,2.55,4.58,5.15-.15.6-.95,1.01-1.21,1.59-.42.92.02,12.89.39,13.46Z"/>
        <path class="cls-8" d="M515.06,285.42c.35-.49,1.68-1.27,2.33-1.42l15.64-3.53c-2.39-3.36-1.74-7.67-1.67-11.56-6.74,3.17-12.66,8-18,13.13-1.18,1.13-2.29,2.91-3.49,3.9-4.2,3.44-8.96-.63-5.23-5.37,5.48-6.96,16.83-15.34,24.78-19.27,17.23-8.52,36.04-4.88,50.43,7.15,2.54,2.12,7.87,7.16,4.77,10.35-3.52,3.62-13.79,2.88-18.88,3.46-9.4,1.07-18.98,2.86-28.25,4.75-5.63,1.15-12.24,3.54-17.84,4.07-3.32.31-5.13-.62-4.97-4.16.02-.56.05-1.02.38-1.5ZM576.47,274.64c-8.96-7.96-20.31-11.53-32.29-10.29.15,4.69-.34,9.7-1.71,14.21,11.22-2.23,22.56-3.54,34.01-3.92Z"/>
        <path class="cls-8" d="M568.89,293.14c3.64-.93,6.11,2.8,3.2,5.56-3.51,3.33-10.39,7.32-14.57,10.35-2.65,1.92-10.84,8.98-13.18,9.59-4.3,1.13-6.08-2.09-4.11-5.71,9.25-7.02,18.8-13.66,28.67-19.8Z"/>
        <path class="cls-8" d="M741,239.18c5.68-.8,12.88.06,18.19,2.27,5.22,2.17,17.26,10.46,16.78,16.79-.21,2.83-2.91,2.29-4.09,3.03-.28.17-.39.82-.69,1.06-2.71,2.11-18.74,4.5-23.19,5.28-12.09,2.11-25.95,4.65-38.09,5.61-3.13.25-4.66.67-7.28-1.25-1.75-1.28-2.75-2.21-2.11-4.53.25-.9,2.76-3.98,3.52-4.88,8.79-10.31,23.21-21.46,36.97-23.39ZM768.09,256.35c-5.01-5.93-13.07-10.1-20.98-9.83,2.13,4.1,2.19,8.88,1.41,13.34l19.57-3.51ZM735.22,248.57c-9.4,3.18-17.81,10.01-24.11,17.52l25.18-4.16c-2.2-3.83-2.45-9.2-1.06-13.36Z"/>
        <path class="cls-8" d="M710.21,277.52c2.72-.61,11.86,1.7,15.11,2.4,6.05,1.29,15.12,3.05,20.66,5.34,4.98,2.06,3.66,7.76-1.47,7.22-6.75-2.01-13.56-3.92-20.39-5.63-4.23-1.06-10.57-1.81-14.29-3.11-3.25-1.13-2.94-5.48.39-6.22Z"/>
      </g>
      <path class="cls-2" d="M405.24,307.14l-119.61-35.46c-.8-.24-1.65.13-2.02.88l-106.41,213.38c-.87,1.74-3.5.93-3.24-1l32.18-235.31c.11-.84-.4-1.64-1.21-1.88l-119.58-35.45c-1.59-.47-1.65-2.71-.08-3.26l117.67-41.64c.76-.27,1.23-1.03,1.13-1.82l-22.77-189.54c-.22-1.85,2.25-2.68,3.19-1.07l95.43,163.29c.5.85,1.61,1.11,2.44.56L461.23,19.14c1.59-1.07,3.47.89,2.34,2.44l-132.53,181.71c-.45.61-.44,1.45.02,2.06l76.02,99.12c1.01,1.32-.26,3.16-1.85,2.69Z"/>
      <path class="cls-2" d="M1289.69,527.44l-85.66-25.39c-.53-.16-1.08.12-1.28.63l-53.66,142.38c-.41,1.09-2.03.79-2.02-.37l.61-158.56c0-.46-.3-.87-.75-1.01l-85.84-25.45c-.97-.29-1.01-1.65-.05-1.99l84.36-29.85c.46-.16.74-.62.69-1.1l-19.74-181.15c-.13-1.19,1.51-1.63,2-.54l71.88,162.21c.24.55.9.78,1.44.5l136.23-71.11c1.03-.54,2.04.76,1.26,1.62l-102.73,115.23c-.33.37-.35.93-.05,1.33l54.44,70.98c.62.8-.16,1.93-1.13,1.64Z"/>
      <path class="cls-12" d="M1471.53,132.12s-20.41-284.69-216.33-169.39c-195.92,115.31,28.49,218.01,28.49,218.01l47.02,336.24,175.51-290.87-34.69-93.99Z"/>
    </g>
    <text class="cls-5" transform="translate(25.98 422.13)"><tspan x="0" y="0">s</tspan><tspan class="cls-9" x="83.7" y="0">o</tspan><tspan class="cls-11" x="172.8" y="0">t</tspan><tspan x="256.95" y="0">ti</tspan></text>
    <text class="cls-5" transform="translate(856.84 422.65)"><tspan x="0" y="0">grafi</tspan><tspan class="cls-6" x="389.46" y="0">c</tspan><tspan x="476.09" y="0">s</tspan></text>
    <text class="cls-4" transform="translate(41.85 252.96)"><tspan x="0" y="0">ci</tspan><tspan class="cls-14" x="23" y="0">a</tspan><tspan x="38.96" y="0">o! qu</tspan><tspan class="cls-10" x="101.84" y="0">e</tspan><tspan x="116.44" y="0">s</tspan><tspan class="cls-7" x="131.32" y="0">t</tspan><tspan x="145.72" y="0">o è</tspan></text>
    <text class="cls-4" transform="translate(1259.71 466.82)"><tspan x="0" y="0">benvenu</tspan><tspan class="cls-7" x="110.72" y="0">t</tspan><tspan x="125.12" y="0">o!</tspan></text>
    <path class="cls-2" d="M847.54,166.91c3.35-27.65,5.96-55.39,7.82-83.18.52-7.83.99-15.67,1.39-23.51.14-2.62-2.4-5.12-5-5-2.82.13-4.85,2.2-5,5-1.44,27.81-3.62,55.59-6.55,83.29-.83,7.81-1.71,15.61-2.66,23.4-.32,2.61,2.52,5.11,5,5,2.98-.13,4.66-2.21,5-5h0Z"/>
    <path class="cls-2" d="M865.68,180.2c21.7-16.75,44.28-32.33,67.66-46.64,6.54-4.01,13.15-7.91,19.81-11.72,2.27-1.3,3.25-4.59,1.79-6.84s-4.41-3.18-6.84-1.79c-23.79,13.61-46.85,28.49-69.04,44.58-6.21,4.5-12.35,9.1-18.43,13.79-1.08.83-1.92,1.61-2.3,2.99-.33,1.2-.18,2.79.5,3.85,1.31,2.04,4.63,3.5,6.84,1.79h0Z"/>
    <path class="cls-2" d="M870.26,216.97c18.41,1,36.79,2.4,55.13,4.21,5.18.51,10.36,1.06,15.54,1.63,2.61.29,5.11-2.51,5-5-.13-2.96-2.21-4.69-5-5-18.32-2.04-36.68-3.67-55.07-4.9-5.2-.35-10.39-.66-15.59-.94-2.62-.14-5.12,2.4-5,5,.13,2.83,2.2,4.85,5,5h0Z"/>
    <g>
      <path class="cls-1" d="M835.64,165.56c3.76-31.03,6.45-62.19,8.06-93.41"/>
      <path class="cls-3" d="M839.39,165.56c2.92-24.14,5.2-48.35,6.83-72.61.46-6.93.87-13.87,1.23-20.8.1-1.96-1.8-3.84-3.75-3.75-2.12.09-3.64,1.65-3.75,3.75-1.26,24.28-3.16,48.53-5.71,72.71-.73,6.91-1.51,13.81-2.35,20.71-.24,1.95,1.89,3.83,3.75,3.75,2.23-.1,3.5-1.66,3.75-3.75h0Z"/>
    </g>
    <g>
      <path class="cls-1" d="M853.69,173.42c24.31-18.77,49.92-35.86,76.58-51.1"/>
      <path class="cls-3" d="M855.58,176.65c18.98-14.65,38.74-28.28,59.19-40.81,5.75-3.52,11.55-6.95,17.39-10.3,1.76-1.01,2.36-3.39,1.35-5.13s-3.37-2.35-5.13-1.35c-20.81,11.91-40.98,24.92-60.4,38.99-5.46,3.95-10.85,7.99-16.18,12.11-1.6,1.24-2.46,3.22-1.35,5.13.92,1.58,3.52,2.59,5.13,1.35h0Z"/>
    </g>
    <g>
      <path class="cls-1" d="M859.91,205.01c20.67,1.12,41.3,2.82,61.87,5.11"/>
      <path class="cls-3" d="M859.91,208.76c20.67,1.12,41.3,2.82,61.87,5.11,1.96.22,3.83-1.88,3.75-3.75-.1-2.22-1.65-3.52-3.75-3.75-20.57-2.29-41.2-3.99-61.87-5.11-1.96-.11-3.84,1.8-3.75,3.75.1,2.12,1.65,3.64,3.75,3.75h0Z"/>
    </g>
  </g>
</svg>