<?xml version="1.0" encoding="UTF-8"?>
<svg id="Livello_1" data-name="Livello 1" xmlns="http://www.w3.org/2000/svg" viewBox="0 0 841.89 1190.55">
  <defs>
    <style>
      .cls-1 {
        fill: #fff;
      }
    </style>
  </defs>
  <g id="Livello_3" data-name="Livello 3">
    <g>
      <path class="cls-1" d="M455.76,765.75l-1.27-15.65c-1.5-8.63,2.16-19.21,2.11-27.19-.01-1.8-1.15-4.53-1.27-6.67-.39-7.17,1.95-17.38,5.79-23.5,4.57-7.3,9.16-2.84,14.02,1.09l9.32-5.76,13.94-5.07c-23.27-1.35-49.47-1.67-68.33-17.15-2.62-2.15-12.44-12.09-13.09-14.91-1.48-6.47,5.96-7.4,8.7-2.85,2.26,3.74,2.5,4.92,6.04,8.17,18.4,16.94,47.02,17.15,70.65,17.97,15.62.54,31.2,1.06,46.83-.43,3.05.36,3.36,3.26,3.82,3.37,14.96.09,29.74,2.25,44.57,3.84,2.24,2.35,4.57,1.52,6.87,2.75,1.41.76,2.36,2.58,3.5,3.19,2.6,1.38,8.2,2.48,11.36,3.69,10.76,4.1,20.24,10.79,28.12,19.12.32.06.26-.38.2-.61-1.16-4.64-8.75-16.13-11.77-20.41-44.93-63.48-123.75-93.47-200.36-88.05-3.15.22-10.35,2.73-11.41-1.98-1.3-5.75,7.04-6.42,11-6.8,26.12-2.54,60.62,1.86,86.08,8.39,49.77,12.76,104.39,50.37,129.63,95.67,8.92,16.01,12.56,32.13,14.03,50.38-.22,4.25-2.71,2.93-5.17,3.63-.17.05-2.84,1.81-3.02,1.99-2.21,2.08-2.3,6.41-6.18,8.03-4.19,1.76-6.45-.42-9.07-3.42-1.11,6.63-4.74,17.27-12.96,10.45-.85,4.8-4.94,9.11-9.62,5.22l-2.5-4.81c-1.04,15.28-2.99,30.59-5.51,45.69-2.78,16.66-7.13,39.51-23.76,47.51,1.11,1.71.59,3.27,1.03,5.02.48,1.91,2.73,5.71,3.57,8.13,1.21,3.49,1.86,6.97,2.9,10.47.84,2.82,2.24,3.35,1.66,7.06-.65,4.17-6.22,4.95-8.23,1.18-1.71-3.21-2.54-11.01-3.75-15.06-.69-2.3-1.57-4.54-2.42-6.77-.92-2.41-2.83-4.29-2.29-7.12l-14.63,2.93c6.26,5.6,10.58,10.84,9.57,19.8-1.43,12.68-18.52,28.9-28.19,36.6-15.67,12.48-34.08,22.18-52.38,30.18,0,3.37.28,4.81-2.78,6.63-5.29,3.15-17.52,6.94-23.83,9.19-3.5,1.25-7.11,2.21-10.63,3.37.28,3.04,1.7,9.38-2.42,10.32-4.94,1.13-6.77-3.38-7.23-7.43-7.02,2.01-16.63,4.99-23.94,3.66-2.4-.44-3.36-2.84-4.67-2.85-6.66,1.15-13.36,2.31-20.1,2.95-21.31,2.03-62.11,3.48-80.18-8.85-25.18-17.18-4.37-42.16,13.14-54.84,19.7-14.27,44.98-22.89,67.68-31.19-3.6-5.99,6.34-9.83,10.59-11.77,13.71-6.27,28.61-9.5,43.14-13.3,2.37-.8,4,1.47,5.83,1.69,2.44.29,6.23-.72,9.23-.46,3.58.31,6.84,1.68,6.47,5.87,8.51-1.67,17.53-2.22,26-3.89,1.27-.25,3.1-.29,3.68-1.54-6.38-.82-13.57-2.89-19.09-6.2-17.11-10.26-19.72-35.93-23.97-53.57l-7.52,1.67c-.19,3.92,4.16,11.46,2.45,14.78-1.44,2.81-3.38,1.49-5.49,2.03-1.6.41-7.39,4.25-9.77,5.27-8.87,3.81-19.52,6.28-29.22,5.51-3.87-.31-6.78-1.94-9.8-4.19-.05,3.04.46,5.95.43,9.01-.13,14.27-3.25,30.96-14.23,40.95-18.72,17.02-62.32,18.77-86.77,19.41-38.23,1-54.94-6.19-66.77-43.55-4.77-15.08-7.71-30.75-10.81-46.24-2.97.38-5.08-2.49-4.94-5.25.06-1.05,1.33-2.66.64-3.61-7.74-.71-7.99-8-8.38-14.2-9.33-4.33-17.79-1.1-26.01,3.71-5.77,3.37-16.24,12.09-18.22,18.59-.73,2.39,1.55,5.73-1.76,7.82-.69.43-1.54.37-2.13.8-1.45,1.04-4.7,14.64-3.94,15.49,1.7-.4,2.46-1.37,4.4-1.29,1.7.07,2.07,1.09,3.54,1.29-1.01-11.36,12.37-27.87,23.3-29.57,4.01-.62,12.35-.03,11.83,5.54-.44,4.71-4.82,2.54-7.33,2.29-8.73-.87-19.59,13.47-19.4,21.49.13,5.57,4.96.65,7.07-1.21,3.73-3.27,9.99-11.27,15.24-11.1,9.52.31,6.21,14.42,4.7,20.17-.88,3.35-1.58,7.6-5.94,7.47-7.06-.2-1.46-12.38-1.04-16.33l-4.19,3.12c-5.53,6.14-14.78,14.52-22.15,5.86l-2.09-3.55c-.31,2.83-7.72,5.46-7.96,7.33-.21,1.64,2.93,12.9,4.19,13.78.44.39.77-.45.93-.76.98-1.9.43-4.53,2.68-5.68.41-.21,4.89-1.25,5.41-1.28,3.12-.17,5.11,2.51,4.7,5.5-.29,2.08-5.06,10.35-4.92,10.95,2.77,1.86,6.34,2.06,9.6,1.91,1.21-5.01-2.13-15.81,6.46-14.19,1.97.37,3.35,2.99,3.55,4.83.14,1.29-.44,2.3-.19,3.5,4.57-3.11,8.1-8.65,12.32-11.92,1.74-1.35,3.31-1.97,5.41-.8.85.48,1.26,1.84,1.56,1.88,1.12.16,2.25-1.14,4.14-.05,3.05,1.75,1.35,4.31,1.43,6.9.23,6.93,5.17,22.23,7.32,29.48,13.67,46.21,48.87,87.82,91.75,109.72,12.24,6.25,33.31,12.08,47.04,12.36,2,.04,3.14-1.08,5.02-1.29,11.35-1.25,24.9,1.31,36.37,1.67,60.38-5.27,124.83-17.02,168.27-62.47,23.96-25.07,46.4-67.53,51.36-102.04.59-4.1,1.03-7.34.48-11.26-.6-4.31,2.91-3.89,3.55-5.19.87-1.76-.03-4.61,3.75-4.65,4.09-.05,4.17,4.34,5.58,7.01,1.26,2.38,3.1,3.71,5.3,5.15.15-3.32,3.77-6.65,7.06-4.55.27.17,3.26,4.79,3.47,5.31.59,1.51.68,2.73.13,4.25,3.75,1.12,7.8,2.24,11.71,1.26-3.25-9.1,6.53-13.04,10.67-4.59.5.12,5.1-3.5,5.45-4.19.32-.62.09-.61-.21-1.05-1.76-2.55-7.61-5.48-4.17-9.15,2.75-2.93,9.18,1.02,9.58.59.52-4.87.26-9.74-1.24-14.45-7.91,2.08-8.08-7.72-2.09-10.03-2.85-9.35-4.77-17.03-13.69-22.25-9-5.27-17.35-6.66-25.82.35-4.09,3.39-4.84,5.64-7.39,9.75-2.55,4.11-9.03,2.05-7.18-4.26.69-2.37,6.31-9.09,8.28-10.95,9.84-9.28,20.06-10.07,32.27-4.66,15.03,6.66,18.91,18.16,22.91,33.1,3.35,1.71,11.9-.31,12.36,4.79.57,6.29-6.4,5-10.47,4.81l1.21,9.36c-.37,4.13-.93,7.86-2.48,11.73,1.77,3.32,9.06,6.63,6.65,11.25-2.48,4.74-9.99-.29-12.28-3.08-1.17,1.03-2.16,2.34-3.36,3.32-1.31,1.08-5.47,3.33-6.05,3.98-2.41,2.7,2.96,6.29,4.18,8.37l-3.76.2c1.32,12.32,3.29,24.6,4.18,37,1.43,20.08,1.23,40.11.41,60.16-.62,15.27-1.01,31.86-5.21,46.62-7.65,26.88-24.12,23.09-35.96,1.68l-6.05-12.96c.84,12.16,1.45,24.36-.06,36.51-1.05,8.45-5.36,30.13-13.02,34.63-6.83,4.01-12.29-2.33-15.42-7.75l-3.69-7.8c-1.11,12.69-3.07,28.26-11.7,38.25-7.85,9.1-15.04,8-23.64.63-9.09-7.79-16.24-19.05-21.52-29.68-2.4,2.14-6.73,3.83-8.99,5.84-1.46,1.3-1.58,4.1-3.94,4.84-1.73.54-3.04-.29-4.21-.04-1.87.4-6.65,3.51-8.91,4.48-34.1,14.75-66.74,16.66-103.34,17.88-22.02.74-48.95,2.53-70.57-.88-3.43-.54-10.98-1.34-9.28-6.65,1.55-4.84,8.82-.58,12.35-1.23-.55-2.03-.83-12.43-2.09-13.17-1.96.16-6.91-1-8.35-.4-.48.2-.9,1.01-1.66,1.27-4.27,1.4-7.13-4.38-4.4-7.74,1.86-2.29,6.05-1.77,8.78-1.71.98.02,4.86,1.18,5.1-.17l-4.25-39.96c-14.98-2.5-28.69-8.56-41.62-16.27l-1.3,5.63c2.6,24.98,3.35,50.39,9.69,74.79,2.93,11.27,11.27,33.13,23.09,37.51,8.57,3.18,8.01-12.06,15.23-8.95,5.69,2.45-2.49,14.15-6.03,16.33-10.54,6.51-21.71-4.62-27.48-12.52-11.84-16.22-15.65-38.08-18.23-57.63-1.05-.08-.72-.1-.82.63-1.67,11.22-4.85,40.9-12.53,48.5-10.15,10.05-21.83-8-26.27-15.57-12.18-20.74-17.98-45.51-21.83-69.09l-7.62,22.68c-1.91,5.81-7.86,16.11-15.16,10.75-7.13-5.24-11.34-25.6-12.97-34.26-2.29-12.18-3.69-24.83-3.97-37.21-.86.38-1.11,1.7-1.44,2.53-3.15,7.82-7.55,24.96-14.98,29.33-11.97,7.04-19.5-16.89-21.82-24.75-10.12-34.17-8.56-70.93,2.3-104.69-12.24-.11-2.05-11.72.37-17.08-4.55-4.81-6.84-11.36-7.91-17.82-2.99,1.2-8.93,6.65-11.66,2.25-3.77-6.09,7.62-9.14,10.33-12.57.02-8.05,1.51-15.8,4.25-23.33.87-2.39,3.42-6.75,3.75-8.79.65-4.14.41-9.08.86-13.35,4.61-43.57,16.12-81.42,43.9-115.76,15.13-18.7,33.98-36.78,56.42-46.2l-6.44-9.22c-3.62-5.76-11.1-18.93-8.91-25.56,3.3-9.99,16.4-1.03,20.79,3.44-4.32-16.38,6.17-35.1,21.96-17.56,8.45,9.39,13.45,22.88,20.65,33.28,2.27,4.98-2.81,9.54-6.86,5.19-5.61-6.02-11.2-19.92-16.41-27.48-1.45-2.11-6.48-8.79-8.86-9.14-.65-.1-.95.49-1.21.93-2.6,4.36-1.07,12.07.25,16.77,1,3.56,4.82,11.03,5.04,13.8.26,3.28-1.75,5.85-5.14,5.54s-7.23-6.66-9.61-9.22c-3.43-3.7-7.22-7.31-11.5-10.03-1.14,1.45,8.43,18.25,10.11,20.61.49.69,3.34,4.51,3.68,4.68,1.52.74,3.4-.51,5.24,1.04,1.94,1.63,1.76,4.52.79,6.65-.36.79-4.86,5.48-5.58,5.71-3.23,1.04-4.14-1.93-5.17-1.84-.67.06-5.76,3.01-6.84,3.62-22.55,12.77-43.99,35.75-57.83,57.53-17.32,27.25-26.83,60-29.25,92.17,7.44-7.1,16.7-12.8,26.57-15.87-1.25-2.47-.96-6.09-2.01-8.47-.51-1.16-1.69-1.43-1.96-3.06-1.14-7.1,6.99-9.63,9.23-2.54.46,1.45,1.46,10.29,2.66,10.29,3.36-2.52,8.86-14.01,12.57-14.6,2.4-.38,3.88.61,5.61,2.07l.42-5.85c-7.74.35-16.24,1.04-23.92-.11-12.18-1.83-19.91-9.07-11.54-20.92,11.5-16.28,55.54-32.56,74.86-38.42,6.62-2.01,17.26-5.3,23.94-5.73,3.7-.24,4.96-.09,6.68,3.33,1.51-.99,1.78-1.98,3.57-2.7,7.67-3.06,18.43-5.08,26.65-7.63,21.63-6.72,48.56-15.45,67.36-27.94,2.31-1.53,8.07-6.73,10.28-6.88,3.41-.23,5.28,3.81,3.14,6.51-1.44,1.81-8.08,6.51-10.33,8.06-14.36,9.97-32.25,16.58-48.72,22.34-6.98,2.44-14.33,4.33-21.22,6.79-.4.14-.96.05-.84.61,3.17.13,6.96,1.13,9.77,2.56,1.99,1.02,4.5,3.98,5.67,4.36,1.87.6,5.45.74,7.63,1.14,1.44.26,6.6,1.97,7.45,1.37.92-2.32,1.96-3.77,4.56-4.23,1.22-.21,6.07-.3,7.34-.19,3.15.28,5.71,3.2,7.12,5.83,1.58,2.96,2.06,7.87,3.35,10.02.61,1.02,4.55,4.03,5.83,5.46,9.41,10.48,14.94,25.72,15.67,39.71.35.4,3.11-1.6,3.83-1.81,3.34-.96,5.62-1.71,8.91-2.79,8.86-2.91,19.62-6.57,28.19-1,5.84,3.8,9.57,11.03,10.91,17.73h9.2ZM520.56,688.01c-15.31,2.17-33.22,4.71-44.22,16.59-1.12,8.29-2.11,21.49-11.71,24.03l-.23.42c-2.13,13.47-.91,27.15.61,40.61,1.79,15.87,4.38,32.57,8.43,48,2.49,9.52,6.11,23.02,14.79,28.68,8.74,5.7,30.59,8.66,41.37,10.05,15.99,2.06,45.55,4.76,58.46-6.65,11.74-10.38,15.81-47.39,17.72-62.95,2.21-17.96,2.83-35.98,1.73-54.07-4.35.53-8.79.53-13.18.44-22-.47-45.65-1.92-67.7-3.37-10.31-.68-37.46-1.36-41.31-13.03-4.47-13.56,16.79-21.87,26.36-25.73l8.88-3.03ZM588.05,691.1c-.41.06-1.49,1.3-2.39,1.6-3.55,1.18-11.46-.74-15.55-.95-21.85-1.1-48.7,2.38-67.96,13.17-7.4,4.15-14.02,9.38-1.56,12.87,4.58,1.28,10.39,1.93,15.16,2.4,21.97,2.16,44.43,1.59,66.45,3.78l24.2.34.7-.98c-1.04-9.79-3.64-19.25-5.93-28.78-.22-.61-.77-.63-1.26-.83-1.22-.49-11.04-2.75-11.85-2.62ZM615.92,723.49c1,.85,17.69-1.14,20.11-1.75,7.63-1.92,7.24-4.2,2.01-9.29-7.38-7.19-17.26-12.57-27.18-15.25,2.12,8.69,4.23,17.34,5.06,26.28ZM263.88,698.88c-11.19,3.34-22.25,7.39-33.01,11.92s-32.28,13.93-38.99,23.71c-2.53,3.69-2.27,4.76,2,6.13,5.44,1.75,16.29,1.63,22.15,1.3.89-.05,5.27-.46,5.63-.64.98-.49,1.53-4.64,1.97-5.97,5.02-15.16,14.49-24.09,28.53-31.25l11.71-5.21ZM327.84,702.22c-11.98-.27-24.2-2.06-36.15-.83-9.41.97-19.13,3.79-27.91,7.21-14.32,5.57-29.12,14.99-32.08,31.24,16.55-2.86,32.83-7.35,48.81-12.43,10.24-3.25,21.48-6.93,31.18-11.46,6.1-2.85,14.18-6.9,16.15-13.73ZM373,720.61c-2.9,12.78-11.41,14.06-17.5,2.24-.7-1.36-1.05-3.24-1.79-4.48-.52-.86-1.49-1.33-1.94-2.24-1.25-2.57.03-6.53-.7-9.33l-13.76-3.29c-.68.2-1.65,3.71-2.12,4.58-6.34,11.78-24.78,18.23-36.8,22.56-22.17,7.99-45.47,14.27-68.68,18.48-1.06,4.9-1.5,9.94-1.35,14.95l3.59-5.39c4.16-3.64,8.81-1.43,9.36,3.93.9,8.78-2.04,21.23-2.12,30.51-.02,2.38,1.31,5.1.78,7.43-.76,3.35-5.18,3.13-7.24.72-.64-.75-.75-1.74-1.45-2.1,2.83,16.79,5.99,33.81,11.17,50.06,8.38,26.28,17.92,36.46,46.71,37.73,20.74.91,50.96-1.8,71.05-7.16,28-7.46,33.31-22.75,32.87-50.35-.18-11.46-1.11-19.91-3.75-30.94-1.07-4.48-2.29-8.94-3.01-13.5-7.12-.18-7.33-6.98-.76-8.69-1.06-5.73,2.43-11.45,1.55-16.97-.3-1.9-1.97-4.15-2.01-5.97-.07-2.86,1.12-3.44.24-7.72-1.76-8.58-6.6-18.47-12.33-25.07ZM364.51,712.79c-.67-.8-3.09-1.55-4.05-2.21-.47.61,2.39,8.68,3.55,9.61.35-1.67,1.55-6.15.5-7.4ZM648.47,748.61c1.06-2.45,2.63-6.83,4.87-8.3.54-.35,1.46-.37,1.83-.68,1.17-.96-.65-8.84-1.04-10.67-.82-3.82-2.04-7.55-3.15-11.28l-.6,3.36c-2.49,7.62-11.84,9.44-18.89,10.37-4.96.65-10.18.45-15.02,1.28l.24,11.73c2.36-1.76,3.98-.35,6.26.42.67-4.92,7.11-4.98,8.95-.79l1.92,7.9c.88-4.58,1.9-13.74,8.55-12.52,3.99.73,5.26,9.79,6.08,9.18ZM437.79,767c-.67-4.34-3.78-10.49-7.94-12.33-5.01-2.22-14.74.5-19.87,2.3-2.1.74-12.71,5.11-13.06,6.95.81,2.94.65,6.23,1.16,9.14.08.47.15.83.65,1l39.05-7.06ZM457.01,774.94l-8.36,1.26,3.17,17.1c1.28-.59,6.87-1.22,7.24-2.32l-2.05-16.03ZM439.87,777.45l-40.52,5.46c0,1.59-.08,3.19-.02,4.78.32,7.91.57,17.12,3.69,24.32,1.15,2.66,3.07,6.66,5.53,8.27,3.93,2.57,13.94.78,18.46-.31,6.58-1.59,13.61-4.55,18.96-8.66l-1.47-6.92c-3.22.09-7.27,2.52-10-.02-1.99-1.85-1.65-4.57.58-6.02,1.1-.71,2.36-.57,3.12-1.06.58-.37.69-1.31,1.81-1.95.78-.44,1.9-.68,2.81-.75l-2.93-17.14ZM230.86,793.75c-.08-5.17.06-10.35.84-15.46-1.17.91-2.36,3.77-2.52,5.21-.2,1.86.47,6.8.85,8.78.12.61,0,1.3.83,1.47ZM635.64,840.02c-.88-1.21-1.03-5-3.88-5.31-.8,15.03-3.91,28.78-9.3,42.73-8.5,21.99-21.71,47.42-37.3,65.1-14.68,16.65-31.56,31.84-51.64,41.66-.29,2.83-1.42,5.72-.33,8.62.32.85,1.58.92,2.23,1.53,1.44,1.33,6.75,23.46,8.03,27.5,4.7,14.81,12.64,32.2,22.7,44.18,2.29,2.73,9.04,10.08,12.43,10.59,3.55.53,7.21-5.08,8.68-7.85,8.23-15.54,7.24-40.74,5.16-57.84-.52-4.31-2.4-10.83-2.47-14.7-.09-5.49,6.11-7.35,8.59-2.28,3.4,9.54,10.55,49.04,17.95,53.94,1.74,1.15,2.51-1.54,3.23-3.08,14.36-30.98,3.03-66.55,2-98.69-.08-2.37-.22-5.38,1.67-7.14,2.17-2.02,5.67-1.17,7.03,1.37,6.78,18.35,10.21,46.95,23.52,61.75,3.71,4.13,6.92,6.92,10.66,1.07,6.29-9.85,7.94-34.24,8.57-46.18,1.38-25.76,1.03-52-1.27-77.75-.62-6.94-1.71-13.87-2.15-20.83-3.93-2.28-3.62-5.93-4.59-9.83-4.63.47-9.28.23-13.73-1.31-1.07,2.89-.34,9.93-4.06,10.78-8.16,1.86-5.38-10.06-6.18-14.54-.47-.98-4.77-2.43-5.52-3.46ZM186.34,887.79c-2.43-.08-4.89.06-7.32,0l1.26-14.21c-4.68.38-9.14-1.15-13.38-2.92.61,1.17,1.19,2.4,1.07,3.78-.48,5.51-4.23,15.46-5.54,21.63-5.93,28-6.62,54.76.74,82.59,1.57,5.92,4.15,14.27,7.32,19.43,2.82,4.6,3.07,4.4,5.68-.1,7.59-13.11,13.94-37.53,18.85-52.62,1.28-3.93,1.12-10.29,6.81-9.54,1.88.25,3.5,2.56,3.55,4.43.07,2.49-1.69,8.24-2.06,11.32-2.07,17.36-.57,37.37,2.11,54.63,1.8,11.56,4.18,24.25,9.75,34.54,2.78,0,13.57-41.28,15.05-45.97,1.2-3.79,1.9-7.77,7.02-6.6,4.35,1,3.39,7.48,3.64,10.56,2.09,25.44,11.55,75.06,30.51,93.21,2.8,2.68,3.91,3.48,5.92-.34,4.3-8.15,7.45-31.66,8.65-41.51.44-3.61.76-4.93.15-8.4-.27-1.56.57-8.17.75-10.35.66-7.78,2.51-17.08,2.54-24.67,0-.5.03-1.01-.24-1.46-.42-.7-2.31-.6-1.88-1.45.22-.43,1.24-.7,1.63-1.3.65-1.01.64-4.52.44-5.78-.4-2.48-2.93-4.53.43-7.15v-.6c-25.19-16.38-43.86-39.21-59.1-64.83-1.5-2.52-3.11-5.05-4.5-7.63-9.97-18.51-14.41-39.94-18.33-60.47l-.84,1.25-.62-.83c-5.03,5.38-10.55,10.17-16.73,14.21l-1.06,9.74c4.61,1.53,3.6,8.06-1.03,7.85-.56-.03-1.08-.45-1.26-.45ZM565.7,882.36c-.61-4.96-5.78-8.7-9.94-10.75-5.5-2.71-14.27-4.62-20.38-4.73-1.87-.04-3.09,1.24-4.58,1.3s-3.54-.51-5.45-.47c-2.13.05-4.37.73-6.61.49l-.6.65-2.17,24.79,44.62-12.43c2.07-.28,3.5-.28,5.11,1.14ZM509.69,869.4l-38.28,6.24-1.43,30.96,36.36-10.25,3.35-26.95ZM462.87,876.93c-13.95,2.34-27.8,5.28-41.39,9.2l-1.25,33.85,40.59-11.04,2.05-32.01ZM413.54,888.63c-13.44,3.65-26.47,8.64-39.29,14-.6.65-.78,2.42-.85,3.33-.51,5.96-.37,15.71,0,21.77.09,1.46.68,2.87.44,4.37l37.24-9.78,2.46-33.69ZM512.62,934.18c16.39-8.84,33.21-20,45.13-34.49,2.61-3.17,5.38-6.71,6.7-10.65l-49.27,13.85-2.56,31.29ZM505.93,905.76l-36.27,10.13-1.77,37.93c12.48-3.94,24.42-9.38,36.19-15.04l1.85-33.02ZM365.47,906.6c-16.31,6.92-34.58,16.43-45.07,31.21-2.13,3-4.42,6.35-4.67,10.16l48.91-13.58.83-27.8ZM419.4,966.79l24.67-5.65.35-.45c-1.41-3.94.89-8.81,5.6-7.6,2.99.77,3.12,5.06,3.91,5.31l4.99-1.63,1.44-38.47-40.45,10.96c-.95.8-.44,9.87-.5,11.83-.03.99-.43,1.9-.45,2.89-.18,7.59-.05,15.24.44,22.8ZM410.61,931.68l-36.59,9.59.21,24.48.83,5.44c11.85.04,23.8-.94,35.54-2.76l.02-36.76ZM365.05,943.38l-48.49,13.16c4.29,6.05,10.16,8.92,17.14,10.87,10.44,2.92,21.38,3.92,32.19,3.97l-.84-28ZM355.08,1052.83l24.39.05c43.09-1.59,97.58-7.82,136.78-26.25,2.2-1.04,8.46-3.66,9.15-5.9.75-2.43.28-12.88.2-16.13-.02-.99-.42-1.9-.45-2.89-.15-4.54.12-9.07-.4-13.6-23.75,10.06-49.12,17.99-74.68,22.08-11.34,1.82-24.57,4.01-35.89,5.08-11.53,1.09-22.5-1.71-33.45-1.27-2.31.09-4.44,1.4-6.72,1.65-7.62.85-15.95-1.28-23.58-1.63l4.66,38.81ZM534.35,1046.61c1.37-.41,7.07-4.02,7.1-5.21l-6.27-16.93c-.44-.17-.83,1.38-.83,1.46v20.69ZM525.57,1031.99c-18.59,8.83-38.54,14.7-58.6,19.36-29.58,6.86-59.35,8.49-89.58,10.33l-21.13-.02,1.25,12.96c13.39.53,26.93.66,40.36.43,37.68-.65,76.83-1.81,112.33-15.59,5.36-2.08,10.69-4.38,15.58-7.41l-.22-20.07Z"/>
      <path class="cls-1" d="M659.01,801.14c.22-.28-1.45-5.92-1.77-6.8-.59-1.64-2.21-6.38-4.27-6.18-3.87,1.68-4.63,8.56-9.87,6.94-6.59-2.04,2.88-12.74,6.56-14.39,13.09-5.87,18.13,17.22,19.61,25.84,1.12,6.52,2.58,11.68-3.6,16.08-5.02,3.57-11.15,3.64-16.06-.19-10.5-8.19-5.6-28.02,9.39-21.31ZM653.2,808.7c-1.84,5.49,3.63,10.62,8.32,6.01.21-.87-6.45-7.02-8.32-6.01Z"/>
      <path class="cls-1" d="M293.03,950.35c.46.79,2.35.69,2.34,3.64-.02,6.81-9.46,9.68-10.76,2.05-.86-5.04-.17-19.42.92-24.51.52-2.44,1.46-4.98,4.31-5.33,3.26-.39,6.01,3.34,5.1,6.38-.21.7-1.18,1.14-1.53,1.81-.56,1.06-.78,15.26-.38,15.95Z"/>
      <path class="cls-1" d="M277.39,795.54c.44-.56,2.07-1.39,2.85-1.53l18.76-3.19c-2.62-4.13-1.58-9.18-1.26-13.79-8.19,3.33-15.51,8.67-22.16,14.41-1.47,1.27-2.9,3.3-4.39,4.39-5.19,3.81-10.58-1.31-5.85-6.69,6.93-7.9,20.91-17.1,30.58-21.25,20.95-9,43.02-3.52,59.31,11.63,2.87,2.67,8.87,8.97,5,12.55-4.4,4.07-16.53,2.55-22.59,2.91-11.21.68-22.67,2.19-33.78,3.85-6.74,1-14.73,3.42-21.4,3.69-3.95.16-6.04-1.06-5.63-5.23.06-.66.12-1.21.54-1.75ZM350.84,786.64c-10.11-9.98-23.35-14.93-37.63-14.21-.11,5.56-1.01,11.46-2.92,16.72,13.44-1.94,26.95-2.78,40.55-2.51Z"/>
      <path class="cls-1" d="M340.69,808.06c4.37-.87,7.06,3.69,3.44,6.78-4.36,3.72-12.77,8.01-17.92,11.34-3.26,2.1-13.41,9.94-16.22,10.53-5.17,1.07-7.07-2.85-4.52-7.02,11.4-7.73,23.14-14.98,35.22-21.63Z"/>
      <path class="cls-1" d="M548.07,755.01c6.78-.59,15.26.89,21.42,3.83s19.79,13.46,18.82,20.93c-.43,3.34-3.59,2.52-5.04,3.33-.34.19-.51.95-.88,1.21-3.35,2.32-22.49,4.16-27.81,4.79-14.47,1.74-31.04,3.88-45.5,4.25-3.72.1-5.56.51-8.55-1.93-1.99-1.63-3.11-2.79-2.22-5.5.35-1.05,3.52-4.54,4.48-5.55,11.06-11.66,28.86-23.94,45.28-25.36ZM579.08,777.03c-5.57-7.33-14.86-12.77-24.25-12.95,2.27,4.98,2.04,10.64.84,15.88l23.41-2.93ZM540.62,765.75c-11.34,3.17-21.74,10.73-29.68,19.22l30.1-3.34c-2.36-4.67-2.33-11.05-.42-15.87Z"/>
      <path class="cls-1" d="M509.17,798.44c3.26-.55,13.94,2.76,17.75,3.79,7.08,1.91,17.73,4.56,24.15,7.62,5.77,2.76,3.85,9.41-2.19,8.46-7.88-2.81-15.82-5.49-23.82-7.95-4.95-1.52-12.41-2.81-16.75-4.57-3.78-1.54-3.14-6.67.85-7.34Z"/>
    </g>
  </g>
  <rect x="-47.55" y="-30.87" width="963.57" height="1271.49"/>
  <path class="cls-1" d="M145.1,81.78c-10.94,2.49-21.88,4.98-32.81,7.47l-16.29,3.71c-4.9,1.12-9.86,2.12-14.62,3.77-4.47,1.55-8.65,3.69-12.26,6.76-3,2.55-5.5,5.73-7.45,9.15-4.12,7.22-5.94,15.49-6.82,23.69-.99,9.29-.76,18.75-.2,28.06.62,10.21,1.9,20.39,3.8,30.44,3.81,20.11,10.23,39.7,19.03,58.18,3.92,8.25,8.42,16.79,16.26,21.95,7.91,5.21,17.9,5.62,27.03,4.55,19.95-2.33,39.64-8.84,57.5-17.95,15.7-8.01,32.71-18.73,39.97-35.57,4.12-9.56,4.46-20.03,3.53-30.26-.96-10.6-2.72-21.17-4.81-31.6-2.1-10.49-4.67-20.88-7.71-31.13-2.77-9.32-5.8-18.65-10.17-27.37-4.16-8.29-9.7-16.01-17.12-21.66-6.86-5.22-15.35-8.65-24.02-8.89-4.19-.12-8.43.57-12.33,2.11-1.26.49-2.13,1.67-1.75,3.08.33,1.2,1.81,2.24,3.08,1.75,7.53-2.97,15.76-2.28,23.14.81s14.06,8.84,18.86,15.58c5.2,7.31,8.78,15.6,11.7,24.04,3.29,9.51,6.02,19.23,8.4,29,2.45,10.08,4.45,20.27,5.99,30.53s2.89,19.84,1.83,29.75c-.94,8.76-4.57,16.78-10.32,23.42-5.55,6.41-12.44,11.49-19.65,15.89-16.47,10.03-34.65,17.2-53.5,21.27-8.64,1.87-17.99,3.72-26.84,2.22-4.18-.71-8.21-2.18-11.59-4.79-3.28-2.53-5.84-5.88-7.99-9.39-4.88-7.98-8.57-16.85-11.93-25.55-3.55-9.2-6.52-18.61-8.9-28.18-4.74-19.07-7.08-38.71-6.92-58.36.12-14.45,1.85-32.16,14.12-41.8,7.34-5.77,17.32-7.16,26.16-9.17,10.45-2.38,20.9-4.76,31.36-7.14,5.19-1.18,10.37-2.36,15.56-3.54,3.14-.71,1.81-5.54-1.33-4.82h0Z"/>
  <path class="cls-1" d="M275.69,76.47c-4.61,21.84-8.73,43.79-12.35,65.82-3.62,22.09-6.74,44.26-9.36,66.49-1.16,9.84-2.99,20.45,2.23,29.5,3.97,6.88,10.88,11.28,18.08,14.2,8.1,3.28,16.79,4.61,25.4,5.7,10.79,1.36,21.67,1.99,32.55,1.88s21.86-.98,32.7-2.54c10.12-1.46,20.46-3.27,30.16-6.58,8.8-3,16.72-7.72,22.29-15.29,4.82-6.56,7.32-14.59,8.42-22.58,1.17-8.48,1-17.04.27-25.55-.91-10.55-2.33-21.07-3.84-31.55-3.16-21.89-7.31-43.65-12.45-65.16-1.14-4.77-2.09-9.8-6.25-12.91-3.8-2.83-8.95-3.49-13.47-4.4-10.7-2.16-21.52-3.72-32.39-4.68-21.69-1.93-43.57-1.4-65.15,1.51-5.22.7-10.42,1.54-15.59,2.52-1.33.25-2.08,1.85-1.75,3.08.38,1.39,1.74,2,3.08,1.75,20.64-3.91,41.69-5.52,62.69-4.86,10.46.33,20.92,1.2,31.28,2.67,5.21.74,10.41,1.62,15.57,2.65,2.51.5,5.03.99,7.51,1.61,1.88.47,3.84,1.06,5.4,2.25,1.61,1.23,2.4,3.08,2.96,4.97.69,2.33,1.19,4.71,1.74,7.07,1.23,5.22,2.41,10.46,3.52,15.71,2.25,10.58,4.26,21.21,6.04,31.88s3.28,21.1,4.56,31.7c1.07,8.86,2.12,17.75,2.13,26.69,0,7.91-.77,15.91-3.45,23.4-2.63,7.33-7.4,13.7-14.03,17.87-7.86,4.95-17.19,7.03-26.17,8.89-10.28,2.13-20.69,3.56-31.16,4.3-10.53.74-21.11.8-31.65.16-9.6-.58-19.33-1.52-28.73-3.64-7.06-1.59-14.41-4-20.13-8.59-2.71-2.18-4.98-4.8-6.52-7.93-2.05-4.15-2.34-8.85-2.11-13.41.27-5.25,1.03-10.49,1.66-15.7.65-5.38,1.32-10.75,2.03-16.12,1.4-10.68,2.93-21.35,4.58-32,3.31-21.42,7.09-42.76,11.34-64.01,1.03-5.15,2.09-10.3,3.18-15.44.66-3.14-4.16-4.48-4.82-1.33h0Z"/>
  <path class="cls-1" d="M216.38,160.71c13.54,1.07,27.22-.13,40.38-3.46,3.12-.79,1.8-5.61-1.33-4.82-12.76,3.23-25.94,4.32-39.06,3.28-1.35-.11-2.5,1.23-2.5,2.5,0,1.44,1.15,2.39,2.5,2.5h0Z"/>
</svg>