<?xml version="1.0" encoding="UTF-8"?>
<svg id="Livello_1" data-name="Livello 1" xmlns="http://www.w3.org/2000/svg" viewBox="0 0 841.89 1190.55">
  <defs>
    <style>
      .cls-1 {
        fill: #829840;
      }
    </style>
  </defs>
  <circle class="cls-1" cx="420.94" cy="595.28" r="256"/>
  <g>
    <path d="M446.17,535.12l-1.68-12.42c-1.56-6.82.91-15.4.53-21.75-.09-1.43-1.11-3.56-1.29-5.26-.61-5.69.81-13.93,3.61-18.97,3.33-6.01,7.17-2.65,11.2.28l7.17-4.98,10.88-4.63c-18.57-.1-39.43.76-55.09-10.78-2.18-1.6-10.41-9.11-11.05-11.33-1.45-5.09,4.43-6.14,6.8-2.64,1.96,2.89,2.2,3.82,5.15,6.26,15.36,12.72,38.14,11.68,56.97,11.33,12.45-.23,24.87-.47,37.24-2.32,2.44.16,2.81,2.46,3.18,2.52,11.9-.56,23.76.53,35.62,1.18,1.88,1.78,3.7,1.01,5.58,1.9,1.15.54,1.98,1.96,2.92,2.39,2.13.99,6.63,1.63,9.19,2.46,8.73,2.82,16.56,7.74,23.18,14.04.26.04.19-.32.13-.5-1.12-3.65-7.64-12.48-10.23-15.77-38.43-48.68-102.41-69.24-163.14-61.69-2.5.31-8.12,2.61-9.17-1.09-1.27-4.53,5.33-5.41,8.46-5.88,20.67-3.12,48.31-1.08,68.84,3.05,40.14,8.06,85.18,35.72,107.18,70.75,7.77,12.38,11.35,25.07,13.29,39.55,0,3.39-2.03,2.45-3.96,3.11-.14.05-2.18,1.57-2.32,1.71-1.67,1.75-1.56,5.2-4.57,6.66-3.26,1.58-5.15-.06-7.36-2.35-.6,5.33-3.04,13.96-9.87,8.87-.47,3.86-3.54,7.46-7.43,4.57l-2.19-3.72c-.18,12.22-1.09,24.5-2.45,36.64-1.51,13.39-4.01,31.78-16.89,38.86.96,1.32.61,2.58,1.03,3.96.46,1.5,2.42,4.44,3.19,6.33,1.11,2.73,1.77,5.48,2.75,8.22.79,2.21,1.93,2.57,1.62,5.56-.34,3.35-4.74,4.21-6.5,1.29-1.5-2.48-2.49-8.66-3.62-11.84-.64-1.8-1.44-3.55-2.21-5.29-.84-1.88-2.44-3.3-2.12-5.57l-11.51,2.95c5.22,4.19,8.87,8.19,8.45,15.37-.6,10.17-13.51,23.8-20.88,30.35-11.94,10.6-26.18,19.11-40.4,26.25.14,2.68.42,3.82-1.93,5.4-4.08,2.74-13.65,6.27-18.57,8.33-2.73,1.14-5.56,2.06-8.32,3.14.35,2.41,1.75,7.4-1.49,8.32-3.88,1.11-5.53-2.41-6.07-5.62-5.5,1.9-13.02,4.68-18.89,3.93-1.93-.25-2.79-2.12-3.84-2.08-5.25,1.2-10.54,2.4-15.86,3.2-16.87,2.51-49.27,5.39-64.17-3.67-20.76-12.63-5.26-33.4,8.13-44.24,15.07-12.2,34.82-20.13,52.53-27.7-3.11-4.62,4.63-8.1,7.93-9.82,10.64-5.57,22.36-8.78,33.76-12.42,1.85-.74,3.25,1,4.71,1.1,1.96.13,4.92-.83,7.32-.75,2.86.1,5.51,1.05,5.39,4.4,6.7-1.69,13.85-2.51,20.52-4.2,1-.25,2.46-.36,2.86-1.38-5.11-.39-10.92-1.73-15.45-4.14-14.04-7.46-17.21-27.8-21.34-41.67l-5.91,1.65c.01,3.13,3.79,8.96,2.58,11.67-1.03,2.3-2.63,1.33-4.28,1.85-1.25.4-5.7,3.7-7.55,4.61-6.9,3.41-15.26,5.82-23.01,5.62-3.09-.08-5.48-1.26-7.98-2.93.09,2.42.62,4.72.73,7.16.5,11.37-1.28,24.81-9.59,33.22-14.18,14.35-48.79,17.59-68.21,19.13-30.38,2.41-43.97-2.61-54.96-31.88-4.44-11.81-7.44-24.18-10.55-36.39-2.35.43-4.15-1.77-4.15-3.97,0-.84.95-2.18.35-2.9-6.19-.24-6.7-6.04-7.27-10.96-7.6-3.05-14.2-.12-20.54,4.05-4.45,2.93-12.41,10.31-13.71,15.58-.48,1.93,1.48,4.5-1.07,6.31-.53.37-1.21.36-1.66.72-1.11.89-3.12,11.86-2.48,12.51,1.34-.39,1.9-1.2,3.44-1.22,1.36-.02,1.7.78,2.87.88-1.28-9.01,8.67-22.73,17.29-24.54,3.16-.67,9.82-.55,9.64,3.92-.15,3.77-3.72,2.23-5.73,2.14-6.98-.32-15.01,11.56-14.53,17.94.34,4.43,3.97.31,5.57-1.26,2.83-2.76,7.47-9.4,11.66-9.49,7.59-.15,5.55,11.23,4.59,15.87-.56,2.71-.94,6.12-4.41,6.2-5.63.14-1.68-9.8-1.52-12.97l-3.2,2.67c-4.14,5.13-11.14,12.2-17.37,5.6l-1.81-2.74c-.13,2.27-5.91,4.68-6.02,6.18-.1,1.31,2.88,10.15,3.92,10.8.37.29.59-.39.7-.64.7-1.55.15-3.63,1.89-4.64.31-.18,3.84-1.2,4.25-1.25,2.48-.27,4.17,1.78,3.97,4.19-.14,1.67-3.59,8.46-3.45,8.93,2.28,1.36,5.13,1.37,7.72,1.12.75-4.04-2.37-12.5,4.54-11.58,1.58.21,2.79,2.24,3.03,3.7.16,1.02-.25,1.85,0,2.8,3.5-2.67,6.08-7.23,9.3-10.02,1.33-1.15,2.55-1.71,4.27-.86.7.34,1.08,1.41,1.32,1.43.9.08,1.74-1,3.29-.22,2.5,1.27,1.25,3.37,1.43,5.44.48,5.51,5.06,17.49,7.07,23.18,12.83,36.23,42.59,67.9,77.64,83.54,10,4.46,27.01,8.22,37.95,7.86,1.6-.05,2.45-1,3.94-1.24,8.98-1.47,19.87-.01,29.01-.21,47.82-6.74,98.6-18.83,131.24-56.87,18-20.98,34.07-55.76,36.55-83.47.29-3.29.51-5.89-.09-8.99-.66-3.41,2.15-3.22,2.6-4.28.61-1.44-.22-3.67,2.79-3.86,3.25-.21,3.5,3.28,4.73,5.35,1.1,1.85,2.63,2.82,4.43,3.88-.02-2.65,2.72-5.46,5.43-3.93.22.12,2.8,3.68,2.98,4.08.53,1.18.66,2.15.28,3.38,3.03.74,6.3,1.45,9.37.51-2.97-7.11,4.65-10.66,8.29-4.11.41.07,3.91-3,4.16-3.56.23-.5.05-.49-.21-.83-1.51-1.96-6.28-4.04-3.7-7.12,2.06-2.45,7.35.42,7.65.07.21-3.9-.21-7.77-1.59-11.46-6.2,1.99-6.76-5.81-2.09-7.9-2.66-7.33-4.52-13.37-11.83-17.15-7.39-3.82-14.09-4.58-20.53,1.37-3.11,2.87-3.61,4.7-5.47,8.08-1.86,3.38-7.1,2.01-5.89-3.09.45-1.91,4.64-7.51,6.12-9.07,7.44-7.81,15.53-8.87,25.48-5.07,12.24,4.67,15.81,13.67,19.62,25.41,2.74,1.22,9.45-.75,10.04,3.3.72,4.99-4.88,4.25-8.12,4.27l1.36,7.4c-.12,3.3-.41,6.3-1.48,9.45,1.55,2.57,7.49,4.9,5.76,8.68-1.77,3.88-7.96.19-9.9-1.93-.89.87-1.62,1.96-2.53,2.79-1,.91-4.21,2.88-4.65,3.42-1.81,2.25,2.62,4.89,3.68,6.49l-2.98.32c1.57,9.76,3.66,19.46,4.89,29.3,1.99,15.94,2.67,31.9,2.86,47.92.15,12.19.54,25.42-2.17,37.36-4.95,21.74-18.22,19.42-28.54,2.86l-5.36-10.07c1.19,9.66,2.18,19.35,1.49,29.09-.48,6.78-2.99,24.23-8.9,28.14-5.26,3.49-9.88-1.34-12.59-5.52l-3.26-6.06c-.35,10.15-1.25,22.65-7.69,30.97-5.86,7.58-11.63,7.01-18.78,1.5-7.56-5.82-13.73-14.49-18.38-22.74-1.82,1.81-5.19,3.34-6.91,5.03-1.11,1.1-1.08,3.33-2.93,4.02-1.35.5-2.43-.1-3.35.14-1.47.39-5.14,3.07-6.9,3.95-26.51,13.19-52.4,16.09-81.47,18.61-17.49,1.52-38.84,4.08-56.19,2.28-2.75-.29-8.79-.6-7.66-4.91,1.03-3.92,7-.84,9.78-1.5-.52-1.59-1.19-9.87-2.22-10.4-1.56.21-5.54-.51-6.66.03-.37.18-.67.85-1.27,1.08-3.34,1.3-5.86-3.19-3.83-5.98,1.39-1.9,4.74-1.67,6.91-1.73.78-.02,3.92.74,4.05-.35l-5.07-31.66c-12.02-1.36-23.19-5.61-33.8-11.21l-.8,4.54c3.13,19.79,4.8,40.01,10.87,59.18,2.81,8.86,10.37,25.92,19.96,28.91,6.95,2.17,5.86-9.95,11.74-7.78,4.63,1.71-1.39,11.38-4.1,13.27-8.11,5.63-17.47-2.76-22.39-8.81-10.11-12.42-14.06-29.68-16.94-45.14-.84-.02-.57-.05-.63.53-.85,9.01-2.13,32.79-7.92,39.17-7.65,8.44-17.7-5.45-21.56-11.29-10.57-16.01-16.23-35.5-20.29-54.12l-5.1,18.39c-1.27,4.71-5.58,13.17-11.61,9.21-5.89-3.87-10.11-19.92-11.77-26.75-2.33-9.6-3.98-19.63-4.73-29.48-.67.34-.81,1.4-1.04,2.07-2.18,6.37-4.95,20.2-10.68,24-9.23,6.11-16.23-12.63-18.41-18.8-9.49-26.79-9.81-56.15-2.59-83.5-9.74.43-2.13-9.25-.43-13.63-3.82-3.64-5.92-8.76-7.04-13.86-2.33,1.08-6.83,5.68-9.18,2.29-3.26-4.69,5.68-7.6,7.68-10.45-.33-6.41.53-12.65,2.4-18.77.59-1.94,2.44-5.52,2.61-7.16.34-3.33-.06-7.25.12-10.67,1.83-34.9,9.38-65.54,30.04-94.08,11.25-15.54,25.48-30.74,42.94-39.19l-5.52-7.08c-3.13-4.43-9.63-14.62-8.17-19.99,2.21-8.1,13-1.51,16.68,1.86-4.13-12.87,3.42-28.22,16.73-14.92,7.12,7.12,11.67,17.66,17.83,25.64,2.01,3.87-1.83,7.72-5.24,4.42-4.72-4.56-9.75-15.4-14.22-21.2-1.24-1.62-5.53-6.73-7.43-6.91-.52-.05-.73.43-.92.8-1.88,3.59-.34,9.66.9,13.35.94,2.8,4.3,8.58,4.59,10.78.35,2.6-1.14,4.73-3.86,4.63-2.78-.1-6.03-5-8.03-6.94-2.89-2.8-6.06-5.52-9.57-7.5-.85,1.2,7.48,14.18,8.91,15.99.42.53,2.85,3.46,3.13,3.57,1.24.53,2.68-.55,4.21.6,1.61,1.21,1.59,3.53.91,5.26-.25.64-3.63,4.57-4.2,4.79-2.53.96-3.38-1.36-4.19-1.25-.53.08-4.45,2.64-5.29,3.18-17.4,11.13-33.49,30.34-43.58,48.28-12.63,22.44-18.81,48.93-19.38,74.66,5.62-5.97,12.75-10.91,20.47-13.77-1.1-1.92-1.02-4.81-1.96-6.66-.46-.9-1.41-1.07-1.69-2.35-1.21-5.61,5.15-7.97,7.24-2.42.43,1.13,1.6,8.13,2.55,8.09,2.56-2.15,6.46-11.54,9.38-12.16,1.89-.4,3.11.32,4.55,1.41l.09-4.68c-6.14.6-12.87,1.51-19.04.92-9.77-.94-16.22-6.39-10.07-16.18,8.46-13.46,42.81-28.28,57.93-33.77,5.18-1.88,13.51-4.95,18.81-5.58,2.93-.35,3.94-.28,5.45,2.37,1.16-.85,1.34-1.66,2.72-2.3,5.97-2.76,14.45-4.82,20.88-7.2,16.92-6.27,37.98-14.36,52.42-25.1,1.77-1.32,6.14-5.71,7.89-5.92,2.71-.33,4.36,2.81,2.77,5.06-1.07,1.51-6.16,5.52-7.88,6.86-11.01,8.55-24.96,14.57-37.82,19.86-5.45,2.24-11.22,4.05-16.6,6.31-.31.13-.76.08-.64.52,2.52-.03,5.59.61,7.88,1.63,1.63.73,3.75,2.98,4.7,3.23,1.51.4,4.37.36,6.12.59,1.15.15,5.33,1.29,5.99.77.64-1.89,1.4-3.09,3.45-3.56.96-.22,4.82-.49,5.83-.46,2.52.09,4.68,2.31,5.91,4.35,1.39,2.29,1.97,6.18,3.09,7.84.53.79,3.79,3.02,4.87,4.1,7.93,7.96,12.97,19.86,14.15,30.98.3.3,2.41-1.41,2.97-1.6,2.62-.9,4.4-1.6,6.97-2.6,6.93-2.69,15.33-6.06,22.38-1.99,4.81,2.78,8.08,8.38,9.43,13.66l7.32-.39ZM494.44,470.45c-12.09,2.38-26.23,5.15-34.48,15.09-.54,6.65-.77,17.21-8.3,19.64l-.16.34c-1.12,10.82.42,21.66,2.2,32.33,2.1,12.57,4.86,25.76,8.73,37.89,2.39,7.48,5.84,18.08,12.98,22.23,7.19,4.18,24.71,5.61,33.34,6.26,12.81.96,36.45,1.87,46.23-7.76,8.9-8.76,10.58-38.42,11.44-50.9,1-14.4.73-28.79-.91-43.15-3.44.61-6.97.79-10.47.9-17.52.56-36.4.4-54.01.18-8.23-.11-29.86.5-33.42-8.64-4.13-10.62,12.43-18.13,19.89-21.61l6.94-2.79ZM548.27,470.06c-.32.07-1.13,1.1-1.84,1.38-2.78,1.09-9.15-.11-12.41-.1-17.43.05-38.65,3.95-53.51,13.36-5.71,3.62-10.76,8.07-.7,10.32,3.7.83,8.35,1.1,12.16,1.27,17.57.79,35.42-.6,53.03.21l19.27-.75.52-.81c-1.24-7.76-3.71-15.18-5.94-22.67-.2-.47-.64-.47-1.04-.6-.99-.34-8.9-1.72-9.54-1.59ZM571.81,494.69c.83.63,14.02-1.66,15.92-2.24,5.99-1.85,5.58-3.65,1.21-7.48-6.17-5.42-14.27-9.29-22.27-11,2.05,6.83,4.09,13.64,5.14,20.73ZM290.68,489.94c-8.76,3.13-17.39,6.83-25.76,10.89-8.55,4.15-25.09,12.46-30.02,20.54-1.86,3.05-1.61,3.89,1.85,4.8,4.4,1.17,13.03.61,17.68.1.71-.08,4.18-.59,4.45-.75.76-.43,1.02-3.76,1.32-4.84,3.35-12.29,10.51-19.81,21.37-26.1l9.1-4.64ZM341.71,489.9c-9.54.29-19.34-.62-28.8.86-7.45,1.17-15.06,3.83-21.9,6.92-11.16,5.04-22.54,13.17-24.2,26.24,13.04-2.97,25.81-7.24,38.31-11.96,8.01-3.02,16.79-6.43,24.33-10.44,4.73-2.52,10.99-6.09,12.27-11.62ZM378.42,502.65c-1.77,10.3-8.48,11.68-13.83,2.52-.61-1.05-.97-2.53-1.62-3.49-.45-.66-1.24-1-1.63-1.71-1.11-1.99-.25-5.2-.95-7.4l-11.09-2.04c-.53.19-1.16,3.02-1.5,3.74-4.55,9.65-18.95,15.57-28.32,19.53-17.3,7.3-35.58,13.29-53.86,17.62-.64,3.95-.78,7.98-.44,11.97l2.63-4.44c3.16-3.08,6.95-1.51,7.61,2.74,1.09,6.96-.72,17-.4,24.39.08,1.9,1.26,4.01.94,5.89-.46,2.7-3.99,2.71-5.73.88-.54-.57-.67-1.36-1.24-1.61,2.96,13.26,6.19,26.68,11,39.41,7.78,20.59,15.8,28.29,38.75,28.09,16.54-.15,40.47-3.59,56.23-8.7,21.96-7.13,25.54-19.53,24.02-41.5-.63-9.12-1.72-15.82-4.29-24.49-1.04-3.53-2.2-7.03-2.97-10.63-5.67.15-6.13-5.25-.97-6.89-1.09-4.52,1.45-9.22.52-13.59-.32-1.5-1.74-3.22-1.85-4.67-.18-2.28.74-2.78-.14-6.16-1.76-6.76-6.03-14.43-10.87-19.45ZM371.33,496.77c-.57-.61-2.52-1.1-3.32-1.59-.35.51,2.27,6.81,3.23,7.51.21-1.34.97-4.97.08-5.92ZM598.77,513.33c.74-1.99,1.8-5.55,3.52-6.82.41-.3,1.14-.36,1.43-.62.89-.81-.89-7.02-1.28-8.45-.81-3.01-1.95-5.93-2.98-8.85l-.33,2.71c-1.66,6.18-9.02,8.02-14.59,9.06-3.92.73-8.08.79-11.9,1.65l.69,9.33c1.81-1.5,3.15-.45,5,.07.32-3.95,5.44-4.27,7.09-1.01l1.86,6.21c.51-3.69.93-11.03,6.28-10.33,3.21.42,4.6,7.58,5.22,7.05ZM431.93,536.87c-.72-3.43-3.45-8.2-6.84-9.49-4.08-1.56-11.71,1.02-15.71,2.67-1.64.68-9.89,4.61-10.1,6.09.77,2.3.78,4.93,1.31,7.23.08.37.16.65.56.77l30.77-7.27ZM447.56,542.39l-6.6,1.35,3.24,13.49c1-.52,5.42-1.26,5.67-2.16l-2.31-12.68ZM434.03,545.11l-32.01,6.06c.06,1.26.07,2.55.19,3.81.59,6.29,1.18,13.61,3.96,19.22,1.03,2.07,2.72,5.18,4.75,6.35,3.24,1.88,11.12.03,14.68-1.03,5.17-1.54,10.64-4.2,14.72-7.7l-1.46-5.45c-2.56.21-5.68,2.32-7.96.41-1.66-1.39-1.51-3.57.2-4.82.84-.61,1.86-.56,2.44-.98.44-.32.49-1.07,1.36-1.63.61-.39,1.48-.62,2.2-.72l-3.06-13.53ZM268.42,566.92c-.28-4.11-.39-8.25.01-12.36-.9.78-1.72,3.1-1.78,4.26-.08,1.49.66,5.4,1.05,6.96.12.48.05,1.03.72,1.13ZM592.43,586.7c-.75-.92-1.03-3.94-3.31-4.07,0,12.01-1.89,23.09-5.6,34.44-5.83,17.88-15.27,38.7-26.93,53.44-10.98,13.89-23.77,26.7-39.33,35.37-.11,2.27-.89,4.61.1,6.88.29.67,1.29.67,1.84,1.12,1.21,1,6.36,18.41,7.55,21.57,4.37,11.6,11.41,25.12,19.92,34.24,1.94,2.07,7.62,7.65,10.34,7.91,2.85.27,5.52-4.35,6.57-6.62,5.89-12.72,4.04-32.76,1.66-46.3-.6-3.41-2.37-8.53-2.58-11.61-.31-4.37,4.55-6.11,6.74-2.18,3.11,7.45,10.46,38.63,16.56,42.22,1.43.84,1.93-1.33,2.44-2.59,10.12-25.29-.4-53.15-2.58-78.71-.16-1.88-.4-4.27,1.03-5.76,1.64-1.7,4.46-1.17,5.65.79,6.17,14.33,10.11,36.97,21.32,48.2,3.13,3.13,5.8,5.22,8.53.4,4.59-8.12,4.87-27.62,4.87-37.15,0-20.58-1.38-41.47-4.3-61.89-.79-5.51-1.95-10.97-2.59-16.51-3.22-1.65-3.13-4.57-4.07-7.64-3.66.57-7.37.58-10.98-.47-.73,2.35.15,7.92-2.78,8.76-6.41,1.83-4.7-7.79-5.53-11.32-.42-.76-3.9-1.74-4.54-2.52ZM236.97,643.72c-1.94.04-3.88.25-5.82.31l.4-11.38c-3.71.5-7.32-.53-10.77-1.76.54.9,1.05,1.87,1.01,2.96-.15,4.41-2.71,12.49-3.49,17.47-3.53,22.56-2.96,43.91,4.08,65.77,1.5,4.65,3.91,11.2,6.64,15.17,2.44,3.54,2.63,3.38,4.52-.32,5.49-10.77,9.51-30.49,12.77-42.72.85-3.18.45-8.25,5.01-7.89,1.5.12,2.89,1.9,3.01,3.38.16,1.98-1,6.64-1.16,9.11-.91,13.92,1.12,29.8,3.99,43.44,1.92,9.13,4.35,19.14,9.22,27.11,2.21-.12,9.05-33.46,10.03-37.26.8-3.07,1.18-6.27,5.31-5.55,3.51.61,3.01,5.82,3.35,8.26,2.74,20.18,12.36,59.31,28.22,72.97,2.34,2.02,3.25,2.61,4.7-.52,3.07-6.67,4.59-25.54,5.13-33.44.2-2.89.4-3.96-.24-6.7-.28-1.23.11-6.53.16-8.27.19-6.23,1.28-13.71.98-19.76-.02-.4-.02-.81-.25-1.16-.37-.54-1.87-.38-1.56-1.08.15-.35.96-.61,1.24-1.11.47-.84.32-3.63.1-4.63-.42-1.96-2.52-3.49.04-5.71l-.02-.48c-20.74-11.99-36.56-29.39-49.77-49.15-1.3-1.95-2.68-3.89-3.9-5.89-8.72-14.33-13.15-31.21-17.14-47.4l-.61,1.03-.53-.64c-3.77,4.5-7.96,8.54-12.71,12.02l-.43,7.8c3.73,1.02,3.2,6.27-.49,6.3-.45,0-.87-.31-1.02-.31ZM538.57,623.38c-.69-3.92-4.96-6.69-8.36-8.14-4.49-1.92-11.55-3.07-16.42-2.91-1.49.05-2.41,1.12-3.59,1.23s-2.84-.26-4.36-.14c-1.69.13-3.45.76-5.24.67l-.45.55-.68,19.84,34.98-11.78c1.64-.31,2.77-.37,4.12.7ZM493.46,615.42l-30.19,6.59.17,24.72,28.49-9.7,1.53-21.61ZM456.52,623.39c-11,2.45-21.9,5.38-32.54,9.07l.44,27.02,31.82-10.51.28-25.59ZM417.77,634.8c-10.54,3.47-20.7,8-30.67,12.81-.45.54-.52,1.96-.54,2.69-.15,4.77.37,12.53.92,17.34.13,1.16.66,2.25.53,3.46l29.22-9.36.54-26.94ZM498.53,666.91c12.66-7.73,25.58-17.33,34.45-29.38,1.94-2.64,4-5.58,4.88-8.77l-38.61,13.11-.71,25.04ZM492,644.55l-28.43,9.6.19,30.29c9.76-3.67,19.04-8.5,28.16-13.51l.07-26.39ZM380.28,651.14c-12.69,6.21-26.82,14.55-34.54,26.77-1.57,2.48-3.25,5.25-3.29,8.29l38.34-12.88-.52-22.18ZM425.74,696.82l19.39-5.54.26-.37c-1.29-3.08.34-7.06,4.13-6.29,2.41.49,2.7,3.9,3.34,4.06l3.9-1.51-.48-30.71-31.72,10.44c-.72.67.07,7.88.1,9.45.02.79-.26,1.53-.24,2.32.18,6.05.6,12.15,1.31,18.14ZM417.26,669.22l-28.71,9.19,1.2,19.5.89,4.3c9.43-.47,18.9-1.76,28.16-3.7l-1.54-29.29ZM381.51,680.46l-38.02,12.53c3.67,4.64,8.46,6.68,14.09,7.94,8.43,1.89,17.18,2.22,25.78,1.81l-1.85-22.27ZM378.2,768.08l19.41-.99c34.22-3.08,77.31-10.35,107.71-26.69,1.71-.92,6.57-3.27,7.03-5.09.49-1.96-.32-10.27-.52-12.86-.06-.79-.41-1.5-.48-2.28-.31-3.61-.29-7.23-.9-10.82-18.47,9.02-38.32,16.4-58.49,20.74-8.94,1.93-19.38,4.23-28.34,5.56s-17.98-.41-26.67.4c-1.84.17-3.48,1.3-5.28,1.6-6.03,1-12.75-.35-18.83-.3l5.35,30.73ZM520.57,755.56c1.07-.39,5.46-3.5,5.43-4.45l-5.7-13.23c-.36-.12-.6,1.13-.6,1.2l.87,16.48ZM512.97,744.28c-14.42,7.82-30.05,13.34-45.8,17.9-23.25,6.72-46.86,9.27-70.83,12.01l-16.81.88,1.55,10.27c10.67-.15,21.45-.61,32.13-1.36,29.95-2.11,61.05-4.69,88.71-17.16,4.17-1.88,8.32-3.94,12.08-6.56l-1.02-15.98Z"/>
    <path d="M609.38,554.73c.16-.24-1.41-4.65-1.69-5.34-.54-1.28-2.03-4.99-3.66-4.75-3.01,1.5-3.32,7.01-7.56,5.94-5.33-1.35,1.75-10.27,4.61-11.74,10.17-5.23,15.15,12.95,16.69,19.76,1.17,5.15,2.55,9.2-2.18,12.96-3.84,3.06-8.72,3.37-12.78.52-8.7-6.08-5.64-22.09,6.57-17.37ZM605.08,561c-1.23,4.45,3.34,8.31,6.87,4.43.13-.7-5.43-5.32-6.87-4.43Z"/>
    <path d="M324.5,689.06c.4.61,1.9.45,2.01,2.8.27,5.42-7.11,8.11-8.47,2.09-.9-3.98-.96-15.46-.31-19.57.31-1.96.95-4.03,3.21-4.43,2.58-.45,4.92,2.41,4.33,4.87-.14.57-.89.96-1.14,1.5-.4.87.02,12.19.37,12.73Z"/>
    <path d="M305.52,566.38c.33-.46,1.59-1.2,2.21-1.34l14.79-3.34c-2.26-3.18-1.65-7.25-1.58-10.93-6.38,3-11.97,7.56-17.02,12.42-1.11,1.07-2.17,2.75-3.3,3.68-3.97,3.26-8.47-.59-4.94-5.08,5.18-6.58,15.91-14.5,23.43-18.22,16.29-8.05,34.08-4.62,47.68,6.76,2.4,2.01,7.44,6.77,4.51,9.78-3.33,3.43-13.04,2.73-17.85,3.27-8.89,1.01-17.94,2.7-26.71,4.49-5.32,1.08-11.57,3.35-16.87,3.85-3.14.29-4.85-.59-4.7-3.93.02-.53.04-.97.36-1.42ZM363.57,556.19c-8.47-7.52-19.2-10.91-30.54-9.73.15,4.44-.32,9.17-1.62,13.44,10.61-2.11,21.33-3.35,32.16-3.71Z"/>
    <path d="M356.41,573.68c3.44-.88,5.78,2.64,3.02,5.26-3.31,3.15-9.82,6.92-13.78,9.79-2.5,1.81-10.25,8.49-12.46,9.07-4.07,1.07-5.75-1.97-3.89-5.4,8.75-6.64,17.78-12.91,27.11-18.72Z"/>
    <path d="M519.16,522.66c5.37-.76,12.18.06,17.2,2.15s16.32,9.89,15.86,15.88c-.2,2.68-2.75,2.16-3.87,2.87-.26.17-.37.78-.65,1-2.57,1.99-17.72,4.26-21.92,4.99-11.44,2-24.53,4.4-36.02,5.31-2.96.23-4.4.64-6.89-1.18-1.66-1.21-2.6-2.09-2-4.28.23-.85,2.61-3.77,3.33-4.61,8.31-9.75,21.95-20.29,34.95-22.12ZM544.77,538.9c-4.74-5.61-12.36-9.55-19.84-9.29,2.01,3.87,2.07,8.39,1.34,12.61l18.5-3.32ZM513.69,531.54c-8.89,3-16.84,9.46-22.8,16.56l23.81-3.93c-2.08-3.62-2.32-8.7-1-12.63Z"/>
    <path d="M490.04,558.91c2.57-.58,11.21,1.61,14.29,2.27,5.72,1.22,14.3,2.88,19.54,5.05,4.71,1.95,3.46,7.33-1.39,6.83-6.39-1.9-12.82-3.71-19.28-5.33-4-1-9.99-1.72-13.52-2.94-3.07-1.06-2.78-5.18.37-5.88Z"/>
  </g>
</svg>